<svg xmlns="http://www.w3.org/2000/svg" version="1.1" xmlns:xlink="http://www.w3.org/1999/xlink" xmlns:svgjs="http://svgjs.dev/svgjs" width="560" height="1200" preserveAspectRatio="none" viewBox="0 0 560 1200"><g mask="url(&quot;#SvgjsMask1225&quot;)" fill="none"><rect width="560" height="1200" x="0" y="0" fill="rgba(253, 246, 236, 1)"></rect><g mask="url(&quot;#SvgjsMask1226&quot;)"><path d="M225 27L9 27" stroke-width="3" stroke="rgba(83, 0, 28, 1)"></path><path d="M220.5 27 a4.5 4.5 0 1 0 9 0 a4.5 4.5 0 1 0 -9 0zM4.5 27 a4.5 4.5 0 1 0 9 0 a4.5 4.5 0 1 0 -9 0z" fill="rgba(83, 0, 28, 1)"></path><path d="M135 1071L261 1197L477 1197" stroke-width="3" stroke="rgba(83, 0, 28, 1)"></path><path d="M130.5 1071 a4.5 4.5 0 1 0 9 0 a4.5 4.5 0 1 0 -9 0zM472.5 1197 a4.5 4.5 0 1 0 9 0 a4.5 4.5 0 1 0 -9 0z" fill="rgba(83, 0, 28, 1)"></path><path d="M99 45L9 135L9 333L63 387" stroke-width="3" stroke="rgba(83, 0, 28, 1)"></path><path d="M94.5 45 a4.5 4.5 0 1 0 9 0 a4.5 4.5 0 1 0 -9 0zM58.5 387 a4.5 4.5 0 1 0 9 0 a4.5 4.5 0 1 0 -9 0z" fill="rgba(83, 0, 28, 1)"></path><path d="M297 819L567 1089L567 1161" stroke-width="3" stroke="rgba(83, 0, 28, 1)"></path><path d="M292.5 819 a4.5 4.5 0 1 0 9 0 a4.5 4.5 0 1 0 -9 0zM562.5 1161 a4.5 4.5 0 1 0 9 0 a4.5 4.5 0 1 0 -9 0z" fill="rgba(83, 0, 28, 1)"></path><path d="M225 1071L225 1017L9 801L9 729" stroke-width="3" stroke="rgba(83, 0, 28, 1)"></path><path d="M220.5 1071 a4.5 4.5 0 1 0 9 0 a4.5 4.5 0 1 0 -9 0zM4.5 729 a4.5 4.5 0 1 0 9 0 a4.5 4.5 0 1 0 -9 0z" fill="rgba(83, 0, 28, 1)"></path><path d="M423 135L549 9L567 9" stroke-width="3" stroke="rgba(83, 0, 28, 1)"></path><path d="M418.5 135 a4.5 4.5 0 1 0 9 0 a4.5 4.5 0 1 0 -9 0zM562.5 9 a4.5 4.5 0 1 0 9 0 a4.5 4.5 0 1 0 -9 0z" fill="rgba(83, 0, 28, 1)"></path><path d="M387 261L387 549L441 603" stroke-width="3" stroke="rgba(83, 0, 28, 1)"></path><path d="M382.5 261 a4.5 4.5 0 1 0 9 0 a4.5 4.5 0 1 0 -9 0zM436.5 603 a4.5 4.5 0 1 0 9 0 a4.5 4.5 0 1 0 -9 0z" fill="rgba(83, 0, 28, 1)"></path><path d="M135 171L27 279L27 333L207 513" stroke-width="3" stroke="rgba(83, 0, 28, 1)"></path><path d="M130.5 171 a4.5 4.5 0 1 0 9 0 a4.5 4.5 0 1 0 -9 0zM202.5 513 a4.5 4.5 0 1 0 9 0 a4.5 4.5 0 1 0 -9 0z" fill="rgba(83, 0, 28, 1)"></path><path d="M297 189L315 207L567 207" stroke-width="3" stroke="rgba(83, 0, 28, 1)"></path><path d="M292.5 189 a4.5 4.5 0 1 0 9 0 a4.5 4.5 0 1 0 -9 0zM562.5 207 a4.5 4.5 0 1 0 9 0 a4.5 4.5 0 1 0 -9 0z" fill="rgba(83, 0, 28, 1)"></path><path d="M189 963L27 801L27 621" stroke-width="3" stroke="rgba(83, 0, 28, 1)"></path><path d="M184.5 963 a4.5 4.5 0 1 0 9 0 a4.5 4.5 0 1 0 -9 0zM22.5 621 a4.5 4.5 0 1 0 9 0 a4.5 4.5 0 1 0 -9 0z" fill="rgba(83, 0, 28, 1)"></path><path d="M261 729L405 585" stroke-width="3" stroke="rgba(83, 0, 28, 1)"></path><path d="M256.5 729 a4.5 4.5 0 1 0 9 0 a4.5 4.5 0 1 0 -9 0zM400.5 585 a4.5 4.5 0 1 0 9 0 a4.5 4.5 0 1 0 -9 0z" fill="rgba(83, 0, 28, 1)"></path><path d="M549 243L405 387L405 549L441 585" stroke-width="3" stroke="rgba(83, 0, 28, 1)"></path><path d="M544.5 243 a4.5 4.5 0 1 0 9 0 a4.5 4.5 0 1 0 -9 0zM436.5 585 a4.5 4.5 0 1 0 9 0 a4.5 4.5 0 1 0 -9 0z" fill="rgba(83, 0, 28, 1)"></path><path d="M315 477L369 423L369 225" stroke-width="3" stroke="rgba(83, 0, 28, 1)"></path><path d="M310.5 477 a4.5 4.5 0 1 0 9 0 a4.5 4.5 0 1 0 -9 0zM364.5 225 a4.5 4.5 0 1 0 9 0 a4.5 4.5 0 1 0 -9 0z" fill="rgba(83, 0, 28, 1)"></path><path d="M243 513L189 459L171 459L153 441L153 315L81 243" stroke-width="3" stroke="rgba(83, 0, 28, 1)"></path><path d="M238.5 513 a4.5 4.5 0 1 0 9 0 a4.5 4.5 0 1 0 -9 0zM76.5 243 a4.5 4.5 0 1 0 9 0 a4.5 4.5 0 1 0 -9 0z" fill="rgba(83, 0, 28, 1)"></path><path d="M225 873L225 999L405 1179L441 1179" stroke-width="3" stroke="rgba(83, 0, 28, 1)"></path><path d="M220.5 873 a4.5 4.5 0 1 0 9 0 a4.5 4.5 0 1 0 -9 0zM436.5 1179 a4.5 4.5 0 1 0 9 0 a4.5 4.5 0 1 0 -9 0z" fill="rgba(83, 0, 28, 1)"></path><path d="M477 1089L531 1143L549 1143" stroke-width="3" stroke="rgba(83, 0, 28, 1)"></path><path d="M472.5 1089 a4.5 4.5 0 1 0 9 0 a4.5 4.5 0 1 0 -9 0zM544.5 1143 a4.5 4.5 0 1 0 9 0 a4.5 4.5 0 1 0 -9 0z" fill="rgba(83, 0, 28, 1)"></path><path d="M45 1107L153 999L153 963L9 819" stroke-width="3" stroke="rgba(83, 0, 28, 1)"></path><path d="M40.5 1107 a4.5 4.5 0 1 0 9 0 a4.5 4.5 0 1 0 -9 0zM4.5 819 a4.5 4.5 0 1 0 9 0 a4.5 4.5 0 1 0 -9 0z" fill="rgba(83, 0, 28, 1)"></path><path d="M351 369L351 423L63 711" stroke-width="3" stroke="rgba(83, 0, 28, 1)"></path><path d="M346.5 369 a4.5 4.5 0 1 0 9 0 a4.5 4.5 0 1 0 -9 0zM58.5 711 a4.5 4.5 0 1 0 9 0 a4.5 4.5 0 1 0 -9 0z" fill="rgba(83, 0, 28, 1)"></path><path d="M351 225L351 351L333 369L207 369L171 405L171 441" stroke-width="3" stroke="rgba(83, 0, 28, 1)"></path><path d="M346.5 225 a4.5 4.5 0 1 0 9 0 a4.5 4.5 0 1 0 -9 0zM166.5 441 a4.5 4.5 0 1 0 9 0 a4.5 4.5 0 1 0 -9 0z" fill="rgba(83, 0, 28, 1)"></path><path d="M45 135L81 171L117 171L279 9L387 9" stroke-width="3" stroke="rgba(83, 0, 28, 1)"></path><path d="M40.5 135 a4.5 4.5 0 1 0 9 0 a4.5 4.5 0 1 0 -9 0zM382.5 9 a4.5 4.5 0 1 0 9 0 a4.5 4.5 0 1 0 -9 0z" fill="rgba(83, 0, 28, 1)"></path><path d="M99 621L45 621L9 585L9 441L45 405L45 387L27 369L9 369" stroke-width="3" stroke="rgba(83, 0, 28, 1)"></path><path d="M94.5 621 a4.5 4.5 0 1 0 9 0 a4.5 4.5 0 1 0 -9 0zM4.5 369 a4.5 4.5 0 1 0 9 0 a4.5 4.5 0 1 0 -9 0z" fill="rgba(83, 0, 28, 1)"></path><path d="M171 171L171 189L135 225L99 225" stroke-width="3" stroke="rgba(83, 0, 28, 1)"></path><path d="M166.5 171 a4.5 4.5 0 1 0 9 0 a4.5 4.5 0 1 0 -9 0zM94.5 225 a4.5 4.5 0 1 0 9 0 a4.5 4.5 0 1 0 -9 0z" fill="rgba(83, 0, 28, 1)"></path><path d="M297 1017L261 1017L243 999L243 711" stroke-width="3" stroke="rgba(83, 0, 28, 1)"></path><path d="M292.5 1017 a4.5 4.5 0 1 0 9 0 a4.5 4.5 0 1 0 -9 0zM238.5 711 a4.5 4.5 0 1 0 9 0 a4.5 4.5 0 1 0 -9 0z" fill="rgba(83, 0, 28, 1)"></path><path d="M405 747L567 909L567 1071" stroke-width="3" stroke="rgba(83, 0, 28, 1)"></path><path d="M400.5 747 a4.5 4.5 0 1 0 9 0 a4.5 4.5 0 1 0 -9 0zM562.5 1071 a4.5 4.5 0 1 0 9 0 a4.5 4.5 0 1 0 -9 0z" fill="rgba(83, 0, 28, 1)"></path><path d="M279 117L279 81L261 63L261 45L279 27L387 27L405 9L531 9" stroke-width="3" stroke="rgba(83, 0, 28, 1)"></path><path d="M274.5 117 a4.5 4.5 0 1 0 9 0 a4.5 4.5 0 1 0 -9 0zM526.5 9 a4.5 4.5 0 1 0 9 0 a4.5 4.5 0 1 0 -9 0z" fill="rgba(83, 0, 28, 1)"></path><path d="M45 1179L135 1089" stroke-width="3" stroke="rgba(83, 0, 28, 1)"></path><path d="M40.5 1179 a4.5 4.5 0 1 0 9 0 a4.5 4.5 0 1 0 -9 0zM130.5 1089 a4.5 4.5 0 1 0 9 0 a4.5 4.5 0 1 0 -9 0z" fill="rgba(83, 0, 28, 1)"></path><path d="M405 45L387 45L279 153L243 153L207 117L207 99L243 63" stroke-width="3" stroke="rgba(83, 0, 28, 1)"></path><path d="M400.5 45 a4.5 4.5 0 1 0 9 0 a4.5 4.5 0 1 0 -9 0zM238.5 63 a4.5 4.5 0 1 0 9 0 a4.5 4.5 0 1 0 -9 0z" fill="rgba(83, 0, 28, 1)"></path><path d="M27 1143L27 1197" stroke-width="3" stroke="rgba(83, 0, 28, 1)"></path><path d="M22.5 1143 a4.5 4.5 0 1 0 9 0 a4.5 4.5 0 1 0 -9 0zM22.5 1197 a4.5 4.5 0 1 0 9 0 a4.5 4.5 0 1 0 -9 0z" fill="rgba(83, 0, 28, 1)"></path><path d="M441 675L441 621L423 603L405 603L261 747L261 801L315 855" stroke-width="3" stroke="rgba(83, 0, 28, 1)"></path><path d="M436.5 675 a4.5 4.5 0 1 0 9 0 a4.5 4.5 0 1 0 -9 0zM310.5 855 a4.5 4.5 0 1 0 9 0 a4.5 4.5 0 1 0 -9 0z" fill="rgba(83, 0, 28, 1)"></path><path d="M135 279L189 333L207 333L297 243L333 243" stroke-width="3" stroke="rgba(83, 0, 28, 1)"></path><path d="M130.5 279 a4.5 4.5 0 1 0 9 0 a4.5 4.5 0 1 0 -9 0zM328.5 243 a4.5 4.5 0 1 0 9 0 a4.5 4.5 0 1 0 -9 0z" fill="rgba(83, 0, 28, 1)"></path><path d="M549 27L387 189L315 189L297 171L261 171L207 225" stroke-width="3" stroke="rgba(83, 0, 28, 1)"></path><path d="M544.5 27 a4.5 4.5 0 1 0 9 0 a4.5 4.5 0 1 0 -9 0zM202.5 225 a4.5 4.5 0 1 0 9 0 a4.5 4.5 0 1 0 -9 0z" fill="rgba(83, 0, 28, 1)"></path><path d="M117 441L117 531L171 585" stroke-width="3" stroke="rgba(83, 0, 28, 1)"></path><path d="M112.5 441 a4.5 4.5 0 1 0 9 0 a4.5 4.5 0 1 0 -9 0zM166.5 585 a4.5 4.5 0 1 0 9 0 a4.5 4.5 0 1 0 -9 0z" fill="rgba(83, 0, 28, 1)"></path><path d="M297 81L297 117" stroke-width="3" stroke="rgba(83, 0, 28, 1)"></path><path d="M292.5 81 a4.5 4.5 0 1 0 9 0 a4.5 4.5 0 1 0 -9 0zM292.5 117 a4.5 4.5 0 1 0 9 0 a4.5 4.5 0 1 0 -9 0z" fill="rgba(83, 0, 28, 1)"></path><path d="M567 675L567 693L495 765L495 819L567 891" stroke-width="3" stroke="rgba(83, 0, 28, 1)"></path><path d="M562.5 675 a4.5 4.5 0 1 0 9 0 a4.5 4.5 0 1 0 -9 0zM562.5 891 a4.5 4.5 0 1 0 9 0 a4.5 4.5 0 1 0 -9 0z" fill="rgba(83, 0, 28, 1)"></path><path d="M567 819L567 711" stroke-width="3" stroke="rgba(83, 0, 28, 1)"></path><path d="M562.5 819 a4.5 4.5 0 1 0 9 0 a4.5 4.5 0 1 0 -9 0zM562.5 711 a4.5 4.5 0 1 0 9 0 a4.5 4.5 0 1 0 -9 0z" fill="rgba(83, 0, 28, 1)"></path><path d="M135 837L135 891L207 963L207 981" stroke-width="3" stroke="rgba(83, 0, 28, 1)"></path><path d="M130.5 837 a4.5 4.5 0 1 0 9 0 a4.5 4.5 0 1 0 -9 0zM202.5 981 a4.5 4.5 0 1 0 9 0 a4.5 4.5 0 1 0 -9 0z" fill="rgba(83, 0, 28, 1)"></path><path d="M207 747L189 747L99 837L81 837L45 801L45 639" stroke-width="3" stroke="rgba(83, 0, 28, 1)"></path><path d="M202.5 747 a4.5 4.5 0 1 0 9 0 a4.5 4.5 0 1 0 -9 0zM40.5 639 a4.5 4.5 0 1 0 9 0 a4.5 4.5 0 1 0 -9 0z" fill="rgba(83, 0, 28, 1)"></path><path d="M459 819L315 819L279 783L279 747L315 711L405 711" stroke-width="3" stroke="rgba(83, 0, 28, 1)"></path><path d="M454.5 819 a4.5 4.5 0 1 0 9 0 a4.5 4.5 0 1 0 -9 0zM400.5 711 a4.5 4.5 0 1 0 9 0 a4.5 4.5 0 1 0 -9 0z" fill="rgba(83, 0, 28, 1)"></path><path d="M9 1017L99 927" stroke-width="3" stroke="rgba(83, 0, 28, 1)"></path><path d="M4.5 1017 a4.5 4.5 0 1 0 9 0 a4.5 4.5 0 1 0 -9 0zM94.5 927 a4.5 4.5 0 1 0 9 0 a4.5 4.5 0 1 0 -9 0z" fill="rgba(83, 0, 28, 1)"></path><path d="M495 495L567 567L567 657L459 765L459 783L477 801" stroke-width="3" stroke="rgba(83, 0, 28, 1)"></path><path d="M490.5 495 a4.5 4.5 0 1 0 9 0 a4.5 4.5 0 1 0 -9 0zM472.5 801 a4.5 4.5 0 1 0 9 0 a4.5 4.5 0 1 0 -9 0z" fill="rgba(83, 0, 28, 1)"></path><path d="M297 909L297 999L351 1053L351 1107L405 1161L495 1161" stroke-width="3" stroke="rgba(83, 0, 28, 1)"></path><path d="M292.5 909 a4.5 4.5 0 1 0 9 0 a4.5 4.5 0 1 0 -9 0zM490.5 1161 a4.5 4.5 0 1 0 9 0 a4.5 4.5 0 1 0 -9 0z" fill="rgba(83, 0, 28, 1)"></path><path d="M549 999L549 1053" stroke-width="3" stroke="rgba(83, 0, 28, 1)"></path><path d="M544.5 999 a4.5 4.5 0 1 0 9 0 a4.5 4.5 0 1 0 -9 0zM544.5 1053 a4.5 4.5 0 1 0 9 0 a4.5 4.5 0 1 0 -9 0z" fill="rgba(83, 0, 28, 1)"></path><path d="M513 945L513 1017L531 1035" stroke-width="3" stroke="rgba(83, 0, 28, 1)"></path><path d="M508.5 945 a4.5 4.5 0 1 0 9 0 a4.5 4.5 0 1 0 -9 0zM526.5 1035 a4.5 4.5 0 1 0 9 0 a4.5 4.5 0 1 0 -9 0z" fill="rgba(83, 0, 28, 1)"></path><path d="M243 405L243 495" stroke-width="3" stroke="rgba(83, 0, 28, 1)"></path><path d="M238.5 405 a4.5 4.5 0 1 0 9 0 a4.5 4.5 0 1 0 -9 0zM238.5 495 a4.5 4.5 0 1 0 9 0 a4.5 4.5 0 1 0 -9 0z" fill="rgba(83, 0, 28, 1)"></path><path d="M513 387L567 333L567 225" stroke-width="3" stroke="rgba(83, 0, 28, 1)"></path><path d="M508.5 387 a4.5 4.5 0 1 0 9 0 a4.5 4.5 0 1 0 -9 0zM562.5 225 a4.5 4.5 0 1 0 9 0 a4.5 4.5 0 1 0 -9 0z" fill="rgba(83, 0, 28, 1)"></path><path d="M351 1179L261 1179L189 1107L189 1035L207 1017" stroke-width="3" stroke="rgba(83, 0, 28, 1)"></path><path d="M346.5 1179 a4.5 4.5 0 1 0 9 0 a4.5 4.5 0 1 0 -9 0zM202.5 1017 a4.5 4.5 0 1 0 9 0 a4.5 4.5 0 1 0 -9 0z" fill="rgba(83, 0, 28, 1)"></path><path d="M63 63L45 45L9 45" stroke-width="3" stroke="rgba(83, 0, 28, 1)"></path><path d="M58.5 63 a4.5 4.5 0 1 0 9 0 a4.5 4.5 0 1 0 -9 0zM4.5 45 a4.5 4.5 0 1 0 9 0 a4.5 4.5 0 1 0 -9 0z" fill="rgba(83, 0, 28, 1)"></path><path d="M387 99L459 27L513 27" stroke-width="3" stroke="rgba(83, 0, 28, 1)"></path><path d="M382.5 99 a4.5 4.5 0 1 0 9 0 a4.5 4.5 0 1 0 -9 0zM508.5 27 a4.5 4.5 0 1 0 9 0 a4.5 4.5 0 1 0 -9 0z" fill="rgba(83, 0, 28, 1)"></path><path d="M117 99L81 135L81 153" stroke-width="3" stroke="rgba(83, 0, 28, 1)"></path><path d="M112.5 99 a4.5 4.5 0 1 0 9 0 a4.5 4.5 0 1 0 -9 0zM76.5 153 a4.5 4.5 0 1 0 9 0 a4.5 4.5 0 1 0 -9 0z" fill="rgba(83, 0, 28, 1)"></path><path d="M297 441L333 405L333 387" stroke-width="3" stroke="rgba(83, 0, 28, 1)"></path><path d="M292.5 441 a4.5 4.5 0 1 0 9 0 a4.5 4.5 0 1 0 -9 0zM328.5 387 a4.5 4.5 0 1 0 9 0 a4.5 4.5 0 1 0 -9 0z" fill="rgba(83, 0, 28, 1)"></path><path d="M207 1089L207 1035" stroke-width="3" stroke="rgba(83, 0, 28, 1)"></path><path d="M202.5 1089 a4.5 4.5 0 1 0 9 0 a4.5 4.5 0 1 0 -9 0zM202.5 1035 a4.5 4.5 0 1 0 9 0 a4.5 4.5 0 1 0 -9 0z" fill="rgba(83, 0, 28, 1)"></path><path d="M81 351L117 315L135 315" stroke-width="3" stroke="rgba(83, 0, 28, 1)"></path><path d="M76.5 351 a4.5 4.5 0 1 0 9 0 a4.5 4.5 0 1 0 -9 0zM130.5 315 a4.5 4.5 0 1 0 9 0 a4.5 4.5 0 1 0 -9 0z" fill="rgba(83, 0, 28, 1)"></path><path d="M441 63L333 171L315 171L297 153" stroke-width="3" stroke="rgba(83, 0, 28, 1)"></path><path d="M436.5 63 a4.5 4.5 0 1 0 9 0 a4.5 4.5 0 1 0 -9 0zM292.5 153 a4.5 4.5 0 1 0 9 0 a4.5 4.5 0 1 0 -9 0z" fill="rgba(83, 0, 28, 1)"></path><path d="M117 333L135 351L135 423" stroke-width="3" stroke="rgba(83, 0, 28, 1)"></path><path d="M112.5 333 a4.5 4.5 0 1 0 9 0 a4.5 4.5 0 1 0 -9 0zM130.5 423 a4.5 4.5 0 1 0 9 0 a4.5 4.5 0 1 0 -9 0z" fill="rgba(83, 0, 28, 1)"></path><path d="M207 9L9 9" stroke-width="3" stroke="rgba(83, 0, 28, 1)"></path><path d="M202.5 9 a4.5 4.5 0 1 0 9 0 a4.5 4.5 0 1 0 -9 0zM4.5 9 a4.5 4.5 0 1 0 9 0 a4.5 4.5 0 1 0 -9 0z" fill="rgba(83, 0, 28, 1)"></path><path d="M477 585L513 549L513 531L423 441L423 405L513 315L549 315" stroke-width="3" stroke="rgba(83, 0, 28, 1)"></path><path d="M472.5 585 a4.5 4.5 0 1 0 9 0 a4.5 4.5 0 1 0 -9 0zM544.5 315 a4.5 4.5 0 1 0 9 0 a4.5 4.5 0 1 0 -9 0z" fill="rgba(83, 0, 28, 1)"></path><path d="M261 189L171 279L153 279L117 243L99 243" stroke-width="3" stroke="rgba(83, 0, 28, 1)"></path><path d="M256.5 189 a4.5 4.5 0 1 0 9 0 a4.5 4.5 0 1 0 -9 0zM94.5 243 a4.5 4.5 0 1 0 9 0 a4.5 4.5 0 1 0 -9 0z" fill="rgba(83, 0, 28, 1)"></path><path d="M531 477L549 495L549 531L567 549" stroke-width="3" stroke="rgba(83, 0, 28, 1)"></path><path d="M526.5 477 a4.5 4.5 0 1 0 9 0 a4.5 4.5 0 1 0 -9 0zM562.5 549 a4.5 4.5 0 1 0 9 0 a4.5 4.5 0 1 0 -9 0z" fill="rgba(83, 0, 28, 1)"></path><path d="M99 477L99 423L81 405L63 405L27 441L27 513L45 531L45 603" stroke-width="3" stroke="rgba(83, 0, 28, 1)"></path><path d="M94.5 477 a4.5 4.5 0 1 0 9 0 a4.5 4.5 0 1 0 -9 0zM40.5 603 a4.5 4.5 0 1 0 9 0 a4.5 4.5 0 1 0 -9 0z" fill="rgba(83, 0, 28, 1)"></path><path d="M477 567L495 549L495 531L423 459" stroke-width="3" stroke="rgba(83, 0, 28, 1)"></path><path d="M472.5 567 a4.5 4.5 0 1 0 9 0 a4.5 4.5 0 1 0 -9 0zM418.5 459 a4.5 4.5 0 1 0 9 0 a4.5 4.5 0 1 0 -9 0z" fill="rgba(83, 0, 28, 1)"></path><path d="M261 909L279 909L315 873L333 873L351 891L351 1035L387 1071L459 1071" stroke-width="3" stroke="rgba(83, 0, 28, 1)"></path><path d="M256.5 909 a4.5 4.5 0 1 0 9 0 a4.5 4.5 0 1 0 -9 0zM454.5 1071 a4.5 4.5 0 1 0 9 0 a4.5 4.5 0 1 0 -9 0z" fill="rgba(83, 0, 28, 1)"></path><path d="M531 495L495 459L495 387L477 369" stroke-width="3" stroke="rgba(83, 0, 28, 1)"></path><path d="M526.5 495 a4.5 4.5 0 1 0 9 0 a4.5 4.5 0 1 0 -9 0zM472.5 369 a4.5 4.5 0 1 0 9 0 a4.5 4.5 0 1 0 -9 0z" fill="rgba(83, 0, 28, 1)"></path><path d="M135 1179L153 1161L153 1107" stroke-width="3" stroke="rgba(83, 0, 28, 1)"></path><path d="M130.5 1179 a4.5 4.5 0 1 0 9 0 a4.5 4.5 0 1 0 -9 0zM148.5 1107 a4.5 4.5 0 1 0 9 0 a4.5 4.5 0 1 0 -9 0z" fill="rgba(83, 0, 28, 1)"></path><path d="M567 117L531 81L531 63L567 27" stroke-width="3" stroke="rgba(83, 0, 28, 1)"></path><path d="M562.5 117 a4.5 4.5 0 1 0 9 0 a4.5 4.5 0 1 0 -9 0zM562.5 27 a4.5 4.5 0 1 0 9 0 a4.5 4.5 0 1 0 -9 0z" fill="rgba(83, 0, 28, 1)"></path><path d="M45 909L45 873L9 837" stroke-width="3" stroke="rgba(83, 0, 28, 1)"></path><path d="M40.5 909 a4.5 4.5 0 1 0 9 0 a4.5 4.5 0 1 0 -9 0zM4.5 837 a4.5 4.5 0 1 0 9 0 a4.5 4.5 0 1 0 -9 0z" fill="rgba(83, 0, 28, 1)"></path><path d="M531 1179L549 1197L567 1197" stroke-width="3" stroke="rgba(83, 0, 28, 1)"></path><path d="M526.5 1179 a4.5 4.5 0 1 0 9 0 a4.5 4.5 0 1 0 -9 0zM562.5 1197 a4.5 4.5 0 1 0 9 0 a4.5 4.5 0 1 0 -9 0z" fill="rgba(83, 0, 28, 1)"></path><path d="M333 225L243 225L171 297" stroke-width="3" stroke="rgba(83, 0, 28, 1)"></path><path d="M328.5 225 a4.5 4.5 0 1 0 9 0 a4.5 4.5 0 1 0 -9 0zM166.5 297 a4.5 4.5 0 1 0 9 0 a4.5 4.5 0 1 0 -9 0z" fill="rgba(83, 0, 28, 1)"></path><path d="M153 225L189 225L243 171" stroke-width="3" stroke="rgba(83, 0, 28, 1)"></path><path d="M148.5 225 a4.5 4.5 0 1 0 9 0 a4.5 4.5 0 1 0 -9 0zM238.5 171 a4.5 4.5 0 1 0 9 0 a4.5 4.5 0 1 0 -9 0z" fill="rgba(83, 0, 28, 1)"></path><path d="M369 963L369 909" stroke-width="3" stroke="rgba(83, 0, 28, 1)"></path><path d="M364.5 963 a4.5 4.5 0 1 0 9 0 a4.5 4.5 0 1 0 -9 0zM364.5 909 a4.5 4.5 0 1 0 9 0 a4.5 4.5 0 1 0 -9 0z" fill="rgba(83, 0, 28, 1)"></path><path d="M279 459L279 387" stroke-width="3" stroke="rgba(83, 0, 28, 1)"></path><path d="M274.5 459 a4.5 4.5 0 1 0 9 0 a4.5 4.5 0 1 0 -9 0zM274.5 387 a4.5 4.5 0 1 0 9 0 a4.5 4.5 0 1 0 -9 0z" fill="rgba(83, 0, 28, 1)"></path><path d="M441 909L369 837L333 837" stroke-width="3" stroke="rgba(83, 0, 28, 1)"></path><path d="M436.5 909 a4.5 4.5 0 1 0 9 0 a4.5 4.5 0 1 0 -9 0zM328.5 837 a4.5 4.5 0 1 0 9 0 a4.5 4.5 0 1 0 -9 0z" fill="rgba(83, 0, 28, 1)"></path><path d="M135 531L171 567L189 567L225 531L225 513" stroke-width="3" stroke="rgba(83, 0, 28, 1)"></path><path d="M130.5 531 a4.5 4.5 0 1 0 9 0 a4.5 4.5 0 1 0 -9 0zM220.5 513 a4.5 4.5 0 1 0 9 0 a4.5 4.5 0 1 0 -9 0z" fill="rgba(83, 0, 28, 1)"></path><path d="M459 315L405 369" stroke-width="3" stroke="rgba(83, 0, 28, 1)"></path><path d="M454.5 315 a4.5 4.5 0 1 0 9 0 a4.5 4.5 0 1 0 -9 0zM400.5 369 a4.5 4.5 0 1 0 9 0 a4.5 4.5 0 1 0 -9 0z" fill="rgba(83, 0, 28, 1)"></path><path d="M9 1143L27 1125L27 1017L99 945L117 945L135 963L135 999L63 1071" stroke-width="3" stroke="rgba(83, 0, 28, 1)"></path><path d="M4.5 1143 a4.5 4.5 0 1 0 9 0 a4.5 4.5 0 1 0 -9 0zM58.5 1071 a4.5 4.5 0 1 0 9 0 a4.5 4.5 0 1 0 -9 0z" fill="rgba(83, 0, 28, 1)"></path><path d="M531 639L531 657L441 747L423 747L405 729L315 729L297 747L297 783L315 801L351 801" stroke-width="3" stroke="rgba(83, 0, 28, 1)"></path><path d="M526.5 639 a4.5 4.5 0 1 0 9 0 a4.5 4.5 0 1 0 -9 0zM346.5 801 a4.5 4.5 0 1 0 9 0 a4.5 4.5 0 1 0 -9 0z" fill="rgba(83, 0, 28, 1)"></path><path d="M315 981L315 891" stroke-width="3" stroke="rgba(83, 0, 28, 1)"></path><path d="M310.5 981 a4.5 4.5 0 1 0 9 0 a4.5 4.5 0 1 0 -9 0zM310.5 891 a4.5 4.5 0 1 0 9 0 a4.5 4.5 0 1 0 -9 0z" fill="rgba(83, 0, 28, 1)"></path><path d="M171 1161L135 1197L81 1197" stroke-width="3" stroke="rgba(83, 0, 28, 1)"></path><path d="M166.5 1161 a4.5 4.5 0 1 0 9 0 a4.5 4.5 0 1 0 -9 0zM76.5 1197 a4.5 4.5 0 1 0 9 0 a4.5 4.5 0 1 0 -9 0z" fill="rgba(83, 0, 28, 1)"></path><path d="M171 783L225 783" stroke-width="3" stroke="rgba(83, 0, 28, 1)"></path><path d="M166.5 783 a4.5 4.5 0 1 0 9 0 a4.5 4.5 0 1 0 -9 0zM220.5 783 a4.5 4.5 0 1 0 9 0 a4.5 4.5 0 1 0 -9 0z" fill="rgba(83, 0, 28, 1)"></path><path d="M423 315L441 315L531 225L549 225" stroke-width="3" stroke="rgba(83, 0, 28, 1)"></path><path d="M418.5 315 a4.5 4.5 0 1 0 9 0 a4.5 4.5 0 1 0 -9 0zM544.5 225 a4.5 4.5 0 1 0 9 0 a4.5 4.5 0 1 0 -9 0z" fill="rgba(83, 0, 28, 1)"></path><path d="M63 207L63 171L27 135" stroke-width="3" stroke="rgba(83, 0, 28, 1)"></path><path d="M58.5 207 a4.5 4.5 0 1 0 9 0 a4.5 4.5 0 1 0 -9 0zM22.5 135 a4.5 4.5 0 1 0 9 0 a4.5 4.5 0 1 0 -9 0z" fill="rgba(83, 0, 28, 1)"></path><path d="M297 45L369 45" stroke-width="3" stroke="rgba(83, 0, 28, 1)"></path><path d="M292.5 45 a4.5 4.5 0 1 0 9 0 a4.5 4.5 0 1 0 -9 0zM364.5 45 a4.5 4.5 0 1 0 9 0 a4.5 4.5 0 1 0 -9 0z" fill="rgba(83, 0, 28, 1)"></path><path d="M477 171L441 171L423 189L405 189" stroke-width="3" stroke="rgba(83, 0, 28, 1)"></path><path d="M472.5 171 a4.5 4.5 0 1 0 9 0 a4.5 4.5 0 1 0 -9 0zM400.5 189 a4.5 4.5 0 1 0 9 0 a4.5 4.5 0 1 0 -9 0z" fill="rgba(83, 0, 28, 1)"></path><path d="M369 81L351 99L351 135L333 153L315 153" stroke-width="3" stroke="rgba(83, 0, 28, 1)"></path><path d="M364.5 81 a4.5 4.5 0 1 0 9 0 a4.5 4.5 0 1 0 -9 0zM310.5 153 a4.5 4.5 0 1 0 9 0 a4.5 4.5 0 1 0 -9 0z" fill="rgba(83, 0, 28, 1)"></path><path d="M243 567L225 567L63 729L63 801L81 819L99 819L153 765" stroke-width="3" stroke="rgba(83, 0, 28, 1)"></path><path d="M238.5 567 a4.5 4.5 0 1 0 9 0 a4.5 4.5 0 1 0 -9 0zM148.5 765 a4.5 4.5 0 1 0 9 0 a4.5 4.5 0 1 0 -9 0z" fill="rgba(83, 0, 28, 1)"></path><path d="M477 243L441 279L441 297" stroke-width="3" stroke="rgba(83, 0, 28, 1)"></path><path d="M472.5 243 a4.5 4.5 0 1 0 9 0 a4.5 4.5 0 1 0 -9 0zM436.5 297 a4.5 4.5 0 1 0 9 0 a4.5 4.5 0 1 0 -9 0z" fill="rgba(83, 0, 28, 1)"></path><path d="M423 99L441 99L495 45" stroke-width="3" stroke="rgba(83, 0, 28, 1)"></path><path d="M418.5 99 a4.5 4.5 0 1 0 9 0 a4.5 4.5 0 1 0 -9 0zM490.5 45 a4.5 4.5 0 1 0 9 0 a4.5 4.5 0 1 0 -9 0z" fill="rgba(83, 0, 28, 1)"></path><path d="M549 963L549 981L531 999L531 1017" stroke-width="3" stroke="rgba(83, 0, 28, 1)"></path><path d="M544.5 963 a4.5 4.5 0 1 0 9 0 a4.5 4.5 0 1 0 -9 0zM526.5 1017 a4.5 4.5 0 1 0 9 0 a4.5 4.5 0 1 0 -9 0z" fill="rgba(83, 0, 28, 1)"></path><path d="M513 819L567 873" stroke-width="3" stroke="rgba(83, 0, 28, 1)"></path><path d="M508.5 819 a4.5 4.5 0 1 0 9 0 a4.5 4.5 0 1 0 -9 0zM562.5 873 a4.5 4.5 0 1 0 9 0 a4.5 4.5 0 1 0 -9 0z" fill="rgba(83, 0, 28, 1)"></path><path d="M279 279L297 261L315 261L333 279" stroke-width="3" stroke="rgba(83, 0, 28, 1)"></path><path d="M274.5 279 a4.5 4.5 0 1 0 9 0 a4.5 4.5 0 1 0 -9 0zM328.5 279 a4.5 4.5 0 1 0 9 0 a4.5 4.5 0 1 0 -9 0z" fill="rgba(83, 0, 28, 1)"></path><path d="M207 441L189 423L189 405L207 387L261 387" stroke-width="3" stroke="rgba(83, 0, 28, 1)"></path><path d="M202.5 441 a4.5 4.5 0 1 0 9 0 a4.5 4.5 0 1 0 -9 0zM256.5 387 a4.5 4.5 0 1 0 9 0 a4.5 4.5 0 1 0 -9 0z" fill="rgba(83, 0, 28, 1)"></path><path d="M171 495L207 531" stroke-width="3" stroke="rgba(83, 0, 28, 1)"></path><path d="M166.5 495 a4.5 4.5 0 1 0 9 0 a4.5 4.5 0 1 0 -9 0zM202.5 531 a4.5 4.5 0 1 0 9 0 a4.5 4.5 0 1 0 -9 0z" fill="rgba(83, 0, 28, 1)"></path><path d="M531 153L441 153" stroke-width="3" stroke="rgba(83, 0, 28, 1)"></path><path d="M526.5 153 a4.5 4.5 0 1 0 9 0 a4.5 4.5 0 1 0 -9 0zM436.5 153 a4.5 4.5 0 1 0 9 0 a4.5 4.5 0 1 0 -9 0z" fill="rgba(83, 0, 28, 1)"></path><path d="M117 963L99 963L45 1017L45 1089" stroke-width="3" stroke="rgba(83, 0, 28, 1)"></path><path d="M112.5 963 a4.5 4.5 0 1 0 9 0 a4.5 4.5 0 1 0 -9 0zM40.5 1089 a4.5 4.5 0 1 0 9 0 a4.5 4.5 0 1 0 -9 0z" fill="rgba(83, 0, 28, 1)"></path><path d="M459 531L423 531" stroke-width="3" stroke="rgba(83, 0, 28, 1)"></path><path d="M454.5 531 a4.5 4.5 0 1 0 9 0 a4.5 4.5 0 1 0 -9 0zM418.5 531 a4.5 4.5 0 1 0 9 0 a4.5 4.5 0 1 0 -9 0z" fill="rgba(83, 0, 28, 1)"></path><path d="M99 81L189 81L207 63L207 45" stroke-width="3" stroke="rgba(83, 0, 28, 1)"></path><path d="M94.5 81 a4.5 4.5 0 1 0 9 0 a4.5 4.5 0 1 0 -9 0zM202.5 45 a4.5 4.5 0 1 0 9 0 a4.5 4.5 0 1 0 -9 0z" fill="rgba(83, 0, 28, 1)"></path><path d="M405 855L495 855L549 909L549 945L531 963L531 981" stroke-width="3" stroke="rgba(83, 0, 28, 1)"></path><path d="M400.5 855 a4.5 4.5 0 1 0 9 0 a4.5 4.5 0 1 0 -9 0zM526.5 981 a4.5 4.5 0 1 0 9 0 a4.5 4.5 0 1 0 -9 0z" fill="rgba(83, 0, 28, 1)"></path><path d="M495 657L459 621L459 549L477 531" stroke-width="3" stroke="rgba(83, 0, 28, 1)"></path><path d="M490.5 657 a4.5 4.5 0 1 0 9 0 a4.5 4.5 0 1 0 -9 0zM472.5 531 a4.5 4.5 0 1 0 9 0 a4.5 4.5 0 1 0 -9 0z" fill="rgba(83, 0, 28, 1)"></path><path d="M387 837L477 837" stroke-width="3" stroke="rgba(83, 0, 28, 1)"></path><path d="M382.5 837 a4.5 4.5 0 1 0 9 0 a4.5 4.5 0 1 0 -9 0zM472.5 837 a4.5 4.5 0 1 0 9 0 a4.5 4.5 0 1 0 -9 0z" fill="rgba(83, 0, 28, 1)"></path><path d="M315 639L171 639L81 729L81 801" stroke-width="3" stroke="rgba(83, 0, 28, 1)"></path><path d="M310.5 639 a4.5 4.5 0 1 0 9 0 a4.5 4.5 0 1 0 -9 0zM76.5 801 a4.5 4.5 0 1 0 9 0 a4.5 4.5 0 1 0 -9 0z" fill="rgba(83, 0, 28, 1)"></path><path d="M351 1161L369 1161L387 1179" stroke-width="3" stroke="rgba(83, 0, 28, 1)"></path><path d="M346.5 1161 a4.5 4.5 0 1 0 9 0 a4.5 4.5 0 1 0 -9 0zM382.5 1179 a4.5 4.5 0 1 0 9 0 a4.5 4.5 0 1 0 -9 0z" fill="rgba(83, 0, 28, 1)"></path><path d="M117 567L117 639L63 693" stroke-width="3" stroke="rgba(83, 0, 28, 1)"></path><path d="M112.5 567 a4.5 4.5 0 1 0 9 0 a4.5 4.5 0 1 0 -9 0zM58.5 693 a4.5 4.5 0 1 0 9 0 a4.5 4.5 0 1 0 -9 0z" fill="rgba(83, 0, 28, 1)"></path><path d="M405 801L441 801" stroke-width="3" stroke="rgba(83, 0, 28, 1)"></path><path d="M400.5 801 a4.5 4.5 0 1 0 9 0 a4.5 4.5 0 1 0 -9 0zM436.5 801 a4.5 4.5 0 1 0 9 0 a4.5 4.5 0 1 0 -9 0z" fill="rgba(83, 0, 28, 1)"></path><path d="M405 351L405 279L459 225L513 225" stroke-width="3" stroke="rgba(83, 0, 28, 1)"></path><path d="M400.5 351 a4.5 4.5 0 1 0 9 0 a4.5 4.5 0 1 0 -9 0zM508.5 225 a4.5 4.5 0 1 0 9 0 a4.5 4.5 0 1 0 -9 0z" fill="rgba(83, 0, 28, 1)"></path><path d="M495 99L531 99L567 135L567 153L531 189L441 189" stroke-width="3" stroke="rgba(83, 0, 28, 1)"></path><path d="M490.5 99 a4.5 4.5 0 1 0 9 0 a4.5 4.5 0 1 0 -9 0zM436.5 189 a4.5 4.5 0 1 0 9 0 a4.5 4.5 0 1 0 -9 0z" fill="rgba(83, 0, 28, 1)"></path><path d="M261 405L261 495" stroke-width="3" stroke="rgba(83, 0, 28, 1)"></path><path d="M256.5 405 a4.5 4.5 0 1 0 9 0 a4.5 4.5 0 1 0 -9 0zM256.5 495 a4.5 4.5 0 1 0 9 0 a4.5 4.5 0 1 0 -9 0z" fill="rgba(83, 0, 28, 1)"></path><path d="M477 963L477 873" stroke-width="3" stroke="rgba(83, 0, 28, 1)"></path><path d="M472.5 963 a4.5 4.5 0 1 0 9 0 a4.5 4.5 0 1 0 -9 0zM472.5 873 a4.5 4.5 0 1 0 9 0 a4.5 4.5 0 1 0 -9 0z" fill="rgba(83, 0, 28, 1)"></path><path d="M333 765L351 747L387 747L423 783" stroke-width="3" stroke="rgba(83, 0, 28, 1)"></path><path d="M328.5 765 a4.5 4.5 0 1 0 9 0 a4.5 4.5 0 1 0 -9 0zM418.5 783 a4.5 4.5 0 1 0 9 0 a4.5 4.5 0 1 0 -9 0z" fill="rgba(83, 0, 28, 1)"></path><path d="M351 603L333 621L189 621" stroke-width="3" stroke="rgba(83, 0, 28, 1)"></path><path d="M346.5 603 a4.5 4.5 0 1 0 9 0 a4.5 4.5 0 1 0 -9 0zM184.5 621 a4.5 4.5 0 1 0 9 0 a4.5 4.5 0 1 0 -9 0z" fill="rgba(83, 0, 28, 1)"></path><path d="M477 657L459 675L459 711L441 729" stroke-width="3" stroke="rgba(83, 0, 28, 1)"></path><path d="M472.5 657 a4.5 4.5 0 1 0 9 0 a4.5 4.5 0 1 0 -9 0zM436.5 729 a4.5 4.5 0 1 0 9 0 a4.5 4.5 0 1 0 -9 0z" fill="rgba(83, 0, 28, 1)"></path><path d="M387 765L387 801" stroke-width="3" stroke="rgba(83, 0, 28, 1)"></path><path d="M382.5 765 a4.5 4.5 0 1 0 9 0 a4.5 4.5 0 1 0 -9 0zM382.5 801 a4.5 4.5 0 1 0 9 0 a4.5 4.5 0 1 0 -9 0z" fill="rgba(83, 0, 28, 1)"></path><path d="M279 549L243 549" stroke-width="3" stroke="rgba(83, 0, 28, 1)"></path><path d="M274.5 549 a4.5 4.5 0 1 0 9 0 a4.5 4.5 0 1 0 -9 0zM238.5 549 a4.5 4.5 0 1 0 9 0 a4.5 4.5 0 1 0 -9 0z" fill="rgba(83, 0, 28, 1)"></path><path d="M549 459L513 423L513 405L567 351" stroke-width="3" stroke="rgba(83, 0, 28, 1)"></path><path d="M544.5 459 a4.5 4.5 0 1 0 9 0 a4.5 4.5 0 1 0 -9 0zM562.5 351 a4.5 4.5 0 1 0 9 0 a4.5 4.5 0 1 0 -9 0z" fill="rgba(83, 0, 28, 1)"></path><path d="M117 729L135 711L135 693L171 657L315 657" stroke-width="3" stroke="rgba(83, 0, 28, 1)"></path><path d="M112.5 729 a4.5 4.5 0 1 0 9 0 a4.5 4.5 0 1 0 -9 0zM310.5 657 a4.5 4.5 0 1 0 9 0 a4.5 4.5 0 1 0 -9 0z" fill="rgba(83, 0, 28, 1)"></path><path d="M171 1035L171 1089" stroke-width="3" stroke="rgba(83, 0, 28, 1)"></path><path d="M166.5 1035 a4.5 4.5 0 1 0 9 0 a4.5 4.5 0 1 0 -9 0zM166.5 1089 a4.5 4.5 0 1 0 9 0 a4.5 4.5 0 1 0 -9 0z" fill="rgba(83, 0, 28, 1)"></path><path d="M153 495L153 477L135 459" stroke-width="3" stroke="rgba(83, 0, 28, 1)"></path><path d="M148.5 495 a4.5 4.5 0 1 0 9 0 a4.5 4.5 0 1 0 -9 0zM130.5 459 a4.5 4.5 0 1 0 9 0 a4.5 4.5 0 1 0 -9 0z" fill="rgba(83, 0, 28, 1)"></path><path d="M189 351L189 369L171 387" stroke-width="3" stroke="rgba(83, 0, 28, 1)"></path><path d="M184.5 351 a4.5 4.5 0 1 0 9 0 a4.5 4.5 0 1 0 -9 0zM166.5 387 a4.5 4.5 0 1 0 9 0 a4.5 4.5 0 1 0 -9 0z" fill="rgba(83, 0, 28, 1)"></path><path d="M495 1035L459 1035L387 963L387 927" stroke-width="3" stroke="rgba(83, 0, 28, 1)"></path><path d="M490.5 1035 a4.5 4.5 0 1 0 9 0 a4.5 4.5 0 1 0 -9 0zM382.5 927 a4.5 4.5 0 1 0 9 0 a4.5 4.5 0 1 0 -9 0z" fill="rgba(83, 0, 28, 1)"></path><path d="M207 1161L171 1125" stroke-width="3" stroke="rgba(83, 0, 28, 1)"></path><path d="M202.5 1161 a4.5 4.5 0 1 0 9 0 a4.5 4.5 0 1 0 -9 0zM166.5 1125 a4.5 4.5 0 1 0 9 0 a4.5 4.5 0 1 0 -9 0z" fill="rgba(83, 0, 28, 1)"></path><path d="M207 171L207 135L189 117" stroke-width="3" stroke="rgba(83, 0, 28, 1)"></path><path d="M202.5 171 a4.5 4.5 0 1 0 9 0 a4.5 4.5 0 1 0 -9 0zM184.5 117 a4.5 4.5 0 1 0 9 0 a4.5 4.5 0 1 0 -9 0z" fill="rgba(83, 0, 28, 1)"></path><path d="M459 1053L387 1053L369 1035L369 999" stroke-width="3" stroke="rgba(83, 0, 28, 1)"></path><path d="M454.5 1053 a4.5 4.5 0 1 0 9 0 a4.5 4.5 0 1 0 -9 0zM364.5 999 a4.5 4.5 0 1 0 9 0 a4.5 4.5 0 1 0 -9 0z" fill="rgba(83, 0, 28, 1)"></path><path d="M351 783L315 783" stroke-width="3" stroke="rgba(83, 0, 28, 1)"></path><path d="M346.5 783 a4.5 4.5 0 1 0 9 0 a4.5 4.5 0 1 0 -9 0zM310.5 783 a4.5 4.5 0 1 0 9 0 a4.5 4.5 0 1 0 -9 0z" fill="rgba(83, 0, 28, 1)"></path><path d="M81 639L63 657L63 675" stroke-width="3" stroke="rgba(83, 0, 28, 1)"></path><path d="M76.5 639 a4.5 4.5 0 1 0 9 0 a4.5 4.5 0 1 0 -9 0zM58.5 675 a4.5 4.5 0 1 0 9 0 a4.5 4.5 0 1 0 -9 0z" fill="rgba(83, 0, 28, 1)"></path><path d="M297 549L279 567L261 567L225 603L207 603" stroke-width="3" stroke="rgba(83, 0, 28, 1)"></path><path d="M292.5 549 a4.5 4.5 0 1 0 9 0 a4.5 4.5 0 1 0 -9 0zM202.5 603 a4.5 4.5 0 1 0 9 0 a4.5 4.5 0 1 0 -9 0z" fill="rgba(83, 0, 28, 1)"></path><path d="M513 1089L477 1053" stroke-width="3" stroke="rgba(83, 0, 28, 1)"></path><path d="M508.5 1089 a4.5 4.5 0 1 0 9 0 a4.5 4.5 0 1 0 -9 0zM472.5 1053 a4.5 4.5 0 1 0 9 0 a4.5 4.5 0 1 0 -9 0z" fill="rgba(83, 0, 28, 1)"></path><path d="M369 459L351 459L315 495L297 495L261 531" stroke-width="3" stroke="rgba(83, 0, 28, 1)"></path><path d="M364.5 459 a4.5 4.5 0 1 0 9 0 a4.5 4.5 0 1 0 -9 0zM256.5 531 a4.5 4.5 0 1 0 9 0 a4.5 4.5 0 1 0 -9 0z" fill="rgba(83, 0, 28, 1)"></path><path d="M459 1143L405 1143L369 1107L369 1071" stroke-width="3" stroke="rgba(83, 0, 28, 1)"></path><path d="M454.5 1143 a4.5 4.5 0 1 0 9 0 a4.5 4.5 0 1 0 -9 0zM364.5 1071 a4.5 4.5 0 1 0 9 0 a4.5 4.5 0 1 0 -9 0z" fill="rgba(83, 0, 28, 1)"></path><path d="M99 999L99 1017L63 1053" stroke-width="3" stroke="rgba(83, 0, 28, 1)"></path><path d="M94.5 999 a4.5 4.5 0 1 0 9 0 a4.5 4.5 0 1 0 -9 0zM58.5 1053 a4.5 4.5 0 1 0 9 0 a4.5 4.5 0 1 0 -9 0z" fill="rgba(83, 0, 28, 1)"></path><path d="M189 873L189 819L171 801" stroke-width="3" stroke="rgba(83, 0, 28, 1)"></path><path d="M184.5 873 a4.5 4.5 0 1 0 9 0 a4.5 4.5 0 1 0 -9 0zM166.5 801 a4.5 4.5 0 1 0 9 0 a4.5 4.5 0 1 0 -9 0z" fill="rgba(83, 0, 28, 1)"></path><path d="M135 1053L117 1053L45 1125L45 1143" stroke-width="3" stroke="rgba(83, 0, 28, 1)"></path><path d="M130.5 1053 a4.5 4.5 0 1 0 9 0 a4.5 4.5 0 1 0 -9 0zM40.5 1143 a4.5 4.5 0 1 0 9 0 a4.5 4.5 0 1 0 -9 0z" fill="rgba(83, 0, 28, 1)"></path><path d="M9 927L63 927L81 909" stroke-width="3" stroke="rgba(83, 0, 28, 1)"></path><path d="M4.5 927 a4.5 4.5 0 1 0 9 0 a4.5 4.5 0 1 0 -9 0zM76.5 909 a4.5 4.5 0 1 0 9 0 a4.5 4.5 0 1 0 -9 0z" fill="rgba(83, 0, 28, 1)"></path><path d="M459 1179L495 1179L513 1161L549 1161L567 1179" stroke-width="3" stroke="rgba(83, 0, 28, 1)"></path><path d="M454.5 1179 a4.5 4.5 0 1 0 9 0 a4.5 4.5 0 1 0 -9 0zM562.5 1179 a4.5 4.5 0 1 0 9 0 a4.5 4.5 0 1 0 -9 0z" fill="rgba(83, 0, 28, 1)"></path><path d="M225 675L171 675L153 693L153 747" stroke-width="3" stroke="rgba(83, 0, 28, 1)"></path><path d="M220.5 675 a4.5 4.5 0 1 0 9 0 a4.5 4.5 0 1 0 -9 0zM148.5 747 a4.5 4.5 0 1 0 9 0 a4.5 4.5 0 1 0 -9 0z" fill="rgba(83, 0, 28, 1)"></path><path d="M315 513L369 513" stroke-width="3" stroke="rgba(83, 0, 28, 1)"></path><path d="M310.5 513 a4.5 4.5 0 1 0 9 0 a4.5 4.5 0 1 0 -9 0zM364.5 513 a4.5 4.5 0 1 0 9 0 a4.5 4.5 0 1 0 -9 0z" fill="rgba(83, 0, 28, 1)"></path><path d="M81 459L81 567L63 585L63 603" stroke-width="3" stroke="rgba(83, 0, 28, 1)"></path><path d="M76.5 459 a4.5 4.5 0 1 0 9 0 a4.5 4.5 0 1 0 -9 0zM58.5 603 a4.5 4.5 0 1 0 9 0 a4.5 4.5 0 1 0 -9 0z" fill="rgba(83, 0, 28, 1)"></path><path d="M45 945L45 963L9 999" stroke-width="3" stroke="rgba(83, 0, 28, 1)"></path><path d="M40.5 945 a4.5 4.5 0 1 0 9 0 a4.5 4.5 0 1 0 -9 0zM4.5 999 a4.5 4.5 0 1 0 9 0 a4.5 4.5 0 1 0 -9 0z" fill="rgba(83, 0, 28, 1)"></path><path d="M99 549L99 495" stroke-width="3" stroke="rgba(83, 0, 28, 1)"></path><path d="M94.5 549 a4.5 4.5 0 1 0 9 0 a4.5 4.5 0 1 0 -9 0zM94.5 495 a4.5 4.5 0 1 0 9 0 a4.5 4.5 0 1 0 -9 0z" fill="rgba(83, 0, 28, 1)"></path><path d="M27 63L27 99L9 117" stroke-width="3" stroke="rgba(83, 0, 28, 1)"></path><path d="M22.5 63 a4.5 4.5 0 1 0 9 0 a4.5 4.5 0 1 0 -9 0zM4.5 117 a4.5 4.5 0 1 0 9 0 a4.5 4.5 0 1 0 -9 0z" fill="rgba(83, 0, 28, 1)"></path><path d="M117 63L135 45L189 45" stroke-width="3" stroke="rgba(83, 0, 28, 1)"></path><path d="M112.5 63 a4.5 4.5 0 1 0 9 0 a4.5 4.5 0 1 0 -9 0zM184.5 45 a4.5 4.5 0 1 0 9 0 a4.5 4.5 0 1 0 -9 0z" fill="rgba(83, 0, 28, 1)"></path><path d="M261 675L207 729L171 729" stroke-width="3" stroke="rgba(83, 0, 28, 1)"></path><path d="M256.5 675 a4.5 4.5 0 1 0 9 0 a4.5 4.5 0 1 0 -9 0zM166.5 729 a4.5 4.5 0 1 0 9 0 a4.5 4.5 0 1 0 -9 0z" fill="rgba(83, 0, 28, 1)"></path><path d="M405 621L369 657L369 693" stroke-width="3" stroke="rgba(83, 0, 28, 1)"></path><path d="M400.5 621 a4.5 4.5 0 1 0 9 0 a4.5 4.5 0 1 0 -9 0zM364.5 693 a4.5 4.5 0 1 0 9 0 a4.5 4.5 0 1 0 -9 0z" fill="rgba(83, 0, 28, 1)"></path><path d="M351 63L279 63" stroke-width="3" stroke="rgba(83, 0, 28, 1)"></path><path d="M346.5 63 a4.5 4.5 0 1 0 9 0 a4.5 4.5 0 1 0 -9 0zM274.5 63 a4.5 4.5 0 1 0 9 0 a4.5 4.5 0 1 0 -9 0z" fill="rgba(83, 0, 28, 1)"></path><path d="M549 837L549 729" stroke-width="3" stroke="rgba(83, 0, 28, 1)"></path><path d="M544.5 837 a4.5 4.5 0 1 0 9 0 a4.5 4.5 0 1 0 -9 0zM544.5 729 a4.5 4.5 0 1 0 9 0 a4.5 4.5 0 1 0 -9 0z" fill="rgba(83, 0, 28, 1)"></path><path d="M459 405L459 459L477 477L495 477" stroke-width="3" stroke="rgba(83, 0, 28, 1)"></path><path d="M454.5 405 a4.5 4.5 0 1 0 9 0 a4.5 4.5 0 1 0 -9 0zM490.5 477 a4.5 4.5 0 1 0 9 0 a4.5 4.5 0 1 0 -9 0z" fill="rgba(83, 0, 28, 1)"></path><path d="M549 333L513 333L495 351L495 369" stroke-width="3" stroke="rgba(83, 0, 28, 1)"></path><path d="M544.5 333 a4.5 4.5 0 1 0 9 0 a4.5 4.5 0 1 0 -9 0zM490.5 369 a4.5 4.5 0 1 0 9 0 a4.5 4.5 0 1 0 -9 0z" fill="rgba(83, 0, 28, 1)"></path><path d="M135 1161L135 1107" stroke-width="3" stroke="rgba(83, 0, 28, 1)"></path><path d="M130.5 1161 a4.5 4.5 0 1 0 9 0 a4.5 4.5 0 1 0 -9 0zM130.5 1107 a4.5 4.5 0 1 0 9 0 a4.5 4.5 0 1 0 -9 0z" fill="rgba(83, 0, 28, 1)"></path><path d="M513 603L513 657" stroke-width="3" stroke="rgba(83, 0, 28, 1)"></path><path d="M508.5 603 a4.5 4.5 0 1 0 9 0 a4.5 4.5 0 1 0 -9 0zM508.5 657 a4.5 4.5 0 1 0 9 0 a4.5 4.5 0 1 0 -9 0z" fill="rgba(83, 0, 28, 1)"></path><path d="M153 1071L153 1017" stroke-width="3" stroke="rgba(83, 0, 28, 1)"></path><path d="M148.5 1071 a4.5 4.5 0 1 0 9 0 a4.5 4.5 0 1 0 -9 0zM148.5 1017 a4.5 4.5 0 1 0 9 0 a4.5 4.5 0 1 0 -9 0z" fill="rgba(83, 0, 28, 1)"></path><path d="M351 531L333 531L261 603L243 603" stroke-width="3" stroke="rgba(83, 0, 28, 1)"></path><path d="M346.5 531 a4.5 4.5 0 1 0 9 0 a4.5 4.5 0 1 0 -9 0zM238.5 603 a4.5 4.5 0 1 0 9 0 a4.5 4.5 0 1 0 -9 0z" fill="rgba(83, 0, 28, 1)"></path><path d="M387 567L369 549L333 549L297 585L297 603" stroke-width="3" stroke="rgba(83, 0, 28, 1)"></path><path d="M382.5 567 a4.5 4.5 0 1 0 9 0 a4.5 4.5 0 1 0 -9 0zM292.5 603 a4.5 4.5 0 1 0 9 0 a4.5 4.5 0 1 0 -9 0z" fill="rgba(83, 0, 28, 1)"></path><path d="M27 189L27 153" stroke-width="3" stroke="rgba(83, 0, 28, 1)"></path><path d="M22.5 189 a4.5 4.5 0 1 0 9 0 a4.5 4.5 0 1 0 -9 0zM22.5 153 a4.5 4.5 0 1 0 9 0 a4.5 4.5 0 1 0 -9 0z" fill="rgba(83, 0, 28, 1)"></path><path d="M9 981L9 945" stroke-width="3" stroke="rgba(83, 0, 28, 1)"></path><path d="M4.5 981 a4.5 4.5 0 1 0 9 0 a4.5 4.5 0 1 0 -9 0zM4.5 945 a4.5 4.5 0 1 0 9 0 a4.5 4.5 0 1 0 -9 0z" fill="rgba(83, 0, 28, 1)"></path><path d="M405 243L423 225L441 225" stroke-width="3" stroke="rgba(83, 0, 28, 1)"></path><path d="M400.5 243 a4.5 4.5 0 1 0 9 0 a4.5 4.5 0 1 0 -9 0zM436.5 225 a4.5 4.5 0 1 0 9 0 a4.5 4.5 0 1 0 -9 0z" fill="rgba(83, 0, 28, 1)"></path><path d="M423 1089L405 1107L405 1125" stroke-width="3" stroke="rgba(83, 0, 28, 1)"></path><path d="M418.5 1089 a4.5 4.5 0 1 0 9 0 a4.5 4.5 0 1 0 -9 0zM400.5 1125 a4.5 4.5 0 1 0 9 0 a4.5 4.5 0 1 0 -9 0z" fill="rgba(83, 0, 28, 1)"></path><path d="M405 999L423 1017L423 1035" stroke-width="3" stroke="rgba(83, 0, 28, 1)"></path><path d="M400.5 999 a4.5 4.5 0 1 0 9 0 a4.5 4.5 0 1 0 -9 0zM418.5 1035 a4.5 4.5 0 1 0 9 0 a4.5 4.5 0 1 0 -9 0z" fill="rgba(83, 0, 28, 1)"></path><path d="M27 585L27 531" stroke-width="3" stroke="rgba(83, 0, 28, 1)"></path><path d="M22.5 585 a4.5 4.5 0 1 0 9 0 a4.5 4.5 0 1 0 -9 0zM22.5 531 a4.5 4.5 0 1 0 9 0 a4.5 4.5 0 1 0 -9 0z" fill="rgba(83, 0, 28, 1)"></path><path d="M279 243L261 261L225 261L189 297L189 315" stroke-width="3" stroke="rgba(83, 0, 28, 1)"></path><path d="M274.5 243 a4.5 4.5 0 1 0 9 0 a4.5 4.5 0 1 0 -9 0zM184.5 315 a4.5 4.5 0 1 0 9 0 a4.5 4.5 0 1 0 -9 0z" fill="rgba(83, 0, 28, 1)"></path><path d="M531 603L549 621L549 657" stroke-width="3" stroke="rgba(83, 0, 28, 1)"></path><path d="M526.5 603 a4.5 4.5 0 1 0 9 0 a4.5 4.5 0 1 0 -9 0zM544.5 657 a4.5 4.5 0 1 0 9 0 a4.5 4.5 0 1 0 -9 0z" fill="rgba(83, 0, 28, 1)"></path><path d="M333 1017L333 891" stroke-width="3" stroke="rgba(83, 0, 28, 1)"></path><path d="M328.5 1017 a4.5 4.5 0 1 0 9 0 a4.5 4.5 0 1 0 -9 0zM328.5 891 a4.5 4.5 0 1 0 9 0 a4.5 4.5 0 1 0 -9 0z" fill="rgba(83, 0, 28, 1)"></path><path d="M63 459L63 423" stroke-width="3" stroke="rgba(83, 0, 28, 1)"></path><path d="M58.5 459 a4.5 4.5 0 1 0 9 0 a4.5 4.5 0 1 0 -9 0zM58.5 423 a4.5 4.5 0 1 0 9 0 a4.5 4.5 0 1 0 -9 0z" fill="rgba(83, 0, 28, 1)"></path><path d="M297 207L261 207" stroke-width="3" stroke="rgba(83, 0, 28, 1)"></path><path d="M292.5 207 a4.5 4.5 0 1 0 9 0 a4.5 4.5 0 1 0 -9 0zM256.5 207 a4.5 4.5 0 1 0 9 0 a4.5 4.5 0 1 0 -9 0z" fill="rgba(83, 0, 28, 1)"></path><path d="M189 711L207 711L225 693" stroke-width="3" stroke="rgba(83, 0, 28, 1)"></path><path d="M184.5 711 a4.5 4.5 0 1 0 9 0 a4.5 4.5 0 1 0 -9 0zM220.5 693 a4.5 4.5 0 1 0 9 0 a4.5 4.5 0 1 0 -9 0z" fill="rgba(83, 0, 28, 1)"></path><path d="M207 423L225 441L225 477" stroke-width="3" stroke="rgba(83, 0, 28, 1)"></path><path d="M202.5 423 a4.5 4.5 0 1 0 9 0 a4.5 4.5 0 1 0 -9 0zM220.5 477 a4.5 4.5 0 1 0 9 0 a4.5 4.5 0 1 0 -9 0z" fill="rgba(83, 0, 28, 1)"></path><path d="M261 1107L261 1053L243 1035" stroke-width="3" stroke="rgba(83, 0, 28, 1)"></path><path d="M256.5 1107 a4.5 4.5 0 1 0 9 0 a4.5 4.5 0 1 0 -9 0zM238.5 1035 a4.5 4.5 0 1 0 9 0 a4.5 4.5 0 1 0 -9 0z" fill="rgba(83, 0, 28, 1)"></path><path d="M441 1089L459 1089L477 1107" stroke-width="3" stroke="rgba(83, 0, 28, 1)"></path><path d="M436.5 1089 a4.5 4.5 0 1 0 9 0 a4.5 4.5 0 1 0 -9 0zM472.5 1107 a4.5 4.5 0 1 0 9 0 a4.5 4.5 0 1 0 -9 0z" fill="rgba(83, 0, 28, 1)"></path><path d="M423 927L459 963" stroke-width="3" stroke="rgba(83, 0, 28, 1)"></path><path d="M418.5 927 a4.5 4.5 0 1 0 9 0 a4.5 4.5 0 1 0 -9 0zM454.5 963 a4.5 4.5 0 1 0 9 0 a4.5 4.5 0 1 0 -9 0z" fill="rgba(83, 0, 28, 1)"></path><path d="M153 819L153 891L207 945" stroke-width="3" stroke="rgba(83, 0, 28, 1)"></path><path d="M148.5 819 a4.5 4.5 0 1 0 9 0 a4.5 4.5 0 1 0 -9 0zM202.5 945 a4.5 4.5 0 1 0 9 0 a4.5 4.5 0 1 0 -9 0z" fill="rgba(83, 0, 28, 1)"></path><path d="M171 873L207 909L207 927" stroke-width="3" stroke="rgba(83, 0, 28, 1)"></path><path d="M166.5 873 a4.5 4.5 0 1 0 9 0 a4.5 4.5 0 1 0 -9 0zM202.5 927 a4.5 4.5 0 1 0 9 0 a4.5 4.5 0 1 0 -9 0z" fill="rgba(83, 0, 28, 1)"></path><path d="M297 1107L261 1143L261 1161" stroke-width="3" stroke="rgba(83, 0, 28, 1)"></path><path d="M292.5 1107 a4.5 4.5 0 1 0 9 0 a4.5 4.5 0 1 0 -9 0zM256.5 1161 a4.5 4.5 0 1 0 9 0 a4.5 4.5 0 1 0 -9 0z" fill="rgba(83, 0, 28, 1)"></path><path d="M405 945L405 963L459 1017L477 1017" stroke-width="3" stroke="rgba(83, 0, 28, 1)"></path><path d="M400.5 945 a4.5 4.5 0 1 0 9 0 a4.5 4.5 0 1 0 -9 0zM472.5 1017 a4.5 4.5 0 1 0 9 0 a4.5 4.5 0 1 0 -9 0z" fill="rgba(83, 0, 28, 1)"></path><path d="M405 693L423 711L441 711" stroke-width="3" stroke="rgba(83, 0, 28, 1)"></path><path d="M400.5 693 a4.5 4.5 0 1 0 9 0 a4.5 4.5 0 1 0 -9 0zM436.5 711 a4.5 4.5 0 1 0 9 0 a4.5 4.5 0 1 0 -9 0z" fill="rgba(83, 0, 28, 1)"></path><path d="M45 225L45 171" stroke-width="3" stroke="rgba(83, 0, 28, 1)"></path><path d="M40.5 225 a4.5 4.5 0 1 0 9 0 a4.5 4.5 0 1 0 -9 0zM40.5 171 a4.5 4.5 0 1 0 9 0 a4.5 4.5 0 1 0 -9 0z" fill="rgba(83, 0, 28, 1)"></path><path d="M279 315L279 297L297 279L315 279" stroke-width="3" stroke="rgba(83, 0, 28, 1)"></path><path d="M274.5 315 a4.5 4.5 0 1 0 9 0 a4.5 4.5 0 1 0 -9 0zM310.5 279 a4.5 4.5 0 1 0 9 0 a4.5 4.5 0 1 0 -9 0z" fill="rgba(83, 0, 28, 1)"></path><path d="M207 1107L243 1143" stroke-width="3" stroke="rgba(83, 0, 28, 1)"></path><path d="M202.5 1107 a4.5 4.5 0 1 0 9 0 a4.5 4.5 0 1 0 -9 0zM238.5 1143 a4.5 4.5 0 1 0 9 0 a4.5 4.5 0 1 0 -9 0z" fill="rgba(83, 0, 28, 1)"></path><path d="M261 117L261 81" stroke-width="3" stroke="rgba(83, 0, 28, 1)"></path><path d="M256.5 117 a4.5 4.5 0 1 0 9 0 a4.5 4.5 0 1 0 -9 0zM256.5 81 a4.5 4.5 0 1 0 9 0 a4.5 4.5 0 1 0 -9 0z" fill="rgba(83, 0, 28, 1)"></path><path d="M117 1143L99 1161L99 1179" stroke-width="3" stroke="rgba(83, 0, 28, 1)"></path><path d="M112.5 1143 a4.5 4.5 0 1 0 9 0 a4.5 4.5 0 1 0 -9 0zM94.5 1179 a4.5 4.5 0 1 0 9 0 a4.5 4.5 0 1 0 -9 0z" fill="rgba(83, 0, 28, 1)"></path><path d="M297 297L297 333L315 351L333 351" stroke-width="3" stroke="rgba(83, 0, 28, 1)"></path><path d="M292.5 297 a4.5 4.5 0 1 0 9 0 a4.5 4.5 0 1 0 -9 0zM328.5 351 a4.5 4.5 0 1 0 9 0 a4.5 4.5 0 1 0 -9 0z" fill="rgba(83, 0, 28, 1)"></path><path d="M243 135L243 81" stroke-width="3" stroke="rgba(83, 0, 28, 1)"></path><path d="M238.5 135 a4.5 4.5 0 1 0 9 0 a4.5 4.5 0 1 0 -9 0zM238.5 81 a4.5 4.5 0 1 0 9 0 a4.5 4.5 0 1 0 -9 0z" fill="rgba(83, 0, 28, 1)"></path><path d="M315 531L279 531" stroke-width="3" stroke="rgba(83, 0, 28, 1)"></path><path d="M310.5 531 a4.5 4.5 0 1 0 9 0 a4.5 4.5 0 1 0 -9 0zM274.5 531 a4.5 4.5 0 1 0 9 0 a4.5 4.5 0 1 0 -9 0z" fill="rgba(83, 0, 28, 1)"></path><path d="M513 1071L531 1089L531 1125" stroke-width="3" stroke="rgba(83, 0, 28, 1)"></path><path d="M508.5 1071 a4.5 4.5 0 1 0 9 0 a4.5 4.5 0 1 0 -9 0zM526.5 1125 a4.5 4.5 0 1 0 9 0 a4.5 4.5 0 1 0 -9 0z" fill="rgba(83, 0, 28, 1)"></path><path d="M225 837L207 855L207 891" stroke-width="3" stroke="rgba(83, 0, 28, 1)"></path><path d="M220.5 837 a4.5 4.5 0 1 0 9 0 a4.5 4.5 0 1 0 -9 0zM202.5 891 a4.5 4.5 0 1 0 9 0 a4.5 4.5 0 1 0 -9 0z" fill="rgba(83, 0, 28, 1)"></path><path d="M9 873L27 891L27 909" stroke-width="3" stroke="rgba(83, 0, 28, 1)"></path><path d="M4.5 873 a4.5 4.5 0 1 0 9 0 a4.5 4.5 0 1 0 -9 0zM22.5 909 a4.5 4.5 0 1 0 9 0 a4.5 4.5 0 1 0 -9 0z" fill="rgba(83, 0, 28, 1)"></path><path d="M369 765L369 801" stroke-width="3" stroke="rgba(83, 0, 28, 1)"></path><path d="M364.5 765 a4.5 4.5 0 1 0 9 0 a4.5 4.5 0 1 0 -9 0zM364.5 801 a4.5 4.5 0 1 0 9 0 a4.5 4.5 0 1 0 -9 0z" fill="rgba(83, 0, 28, 1)"></path><path d="M531 747L513 765L513 801L531 819" stroke-width="3" stroke="rgba(83, 0, 28, 1)"></path><path d="M526.5 747 a4.5 4.5 0 1 0 9 0 a4.5 4.5 0 1 0 -9 0zM526.5 819 a4.5 4.5 0 1 0 9 0 a4.5 4.5 0 1 0 -9 0z" fill="rgba(83, 0, 28, 1)"></path><path d="M135 729L135 747L117 765" stroke-width="3" stroke="rgba(83, 0, 28, 1)"></path><path d="M130.5 729 a4.5 4.5 0 1 0 9 0 a4.5 4.5 0 1 0 -9 0zM112.5 765 a4.5 4.5 0 1 0 9 0 a4.5 4.5 0 1 0 -9 0z" fill="rgba(83, 0, 28, 1)"></path><path d="M549 567L549 603" stroke-width="3" stroke="rgba(83, 0, 28, 1)"></path><path d="M544.5 567 a4.5 4.5 0 1 0 9 0 a4.5 4.5 0 1 0 -9 0zM544.5 603 a4.5 4.5 0 1 0 9 0 a4.5 4.5 0 1 0 -9 0z" fill="rgba(83, 0, 28, 1)"></path><path d="M495 891L513 891L531 909L531 927" stroke-width="3" stroke="rgba(83, 0, 28, 1)"></path><path d="M490.5 891 a4.5 4.5 0 1 0 9 0 a4.5 4.5 0 1 0 -9 0zM526.5 927 a4.5 4.5 0 1 0 9 0 a4.5 4.5 0 1 0 -9 0z" fill="rgba(83, 0, 28, 1)"></path><path d="M387 657L423 657" stroke-width="3" stroke="rgba(83, 0, 28, 1)"></path><path d="M382.5 657 a4.5 4.5 0 1 0 9 0 a4.5 4.5 0 1 0 -9 0zM418.5 657 a4.5 4.5 0 1 0 9 0 a4.5 4.5 0 1 0 -9 0z" fill="rgba(83, 0, 28, 1)"></path><path d="M549 135L477 135" stroke-width="3" stroke="rgba(83, 0, 28, 1)"></path><path d="M544.5 135 a4.5 4.5 0 1 0 9 0 a4.5 4.5 0 1 0 -9 0zM472.5 135 a4.5 4.5 0 1 0 9 0 a4.5 4.5 0 1 0 -9 0z" fill="rgba(83, 0, 28, 1)"></path><path d="M27 243L27 207" stroke-width="3" stroke="rgba(83, 0, 28, 1)"></path><path d="M22.5 243 a4.5 4.5 0 1 0 9 0 a4.5 4.5 0 1 0 -9 0zM22.5 207 a4.5 4.5 0 1 0 9 0 a4.5 4.5 0 1 0 -9 0z" fill="rgba(83, 0, 28, 1)"></path><path d="M261 891L279 891L297 873L297 855L279 837L261 837" stroke-width="3" stroke="rgba(83, 0, 28, 1)"></path><path d="M256.5 891 a4.5 4.5 0 1 0 9 0 a4.5 4.5 0 1 0 -9 0zM256.5 837 a4.5 4.5 0 1 0 9 0 a4.5 4.5 0 1 0 -9 0z" fill="rgba(83, 0, 28, 1)"></path><path d="M117 1071L117 1089L63 1143" stroke-width="3" stroke="rgba(83, 0, 28, 1)"></path><path d="M112.5 1071 a4.5 4.5 0 1 0 9 0 a4.5 4.5 0 1 0 -9 0zM58.5 1143 a4.5 4.5 0 1 0 9 0 a4.5 4.5 0 1 0 -9 0z" fill="rgba(83, 0, 28, 1)"></path><path d="M369 567L369 603" stroke-width="3" stroke="rgba(83, 0, 28, 1)"></path><path d="M364.5 567 a4.5 4.5 0 1 0 9 0 a4.5 4.5 0 1 0 -9 0zM364.5 603 a4.5 4.5 0 1 0 9 0 a4.5 4.5 0 1 0 -9 0z" fill="rgba(83, 0, 28, 1)"></path><path d="M315 1107L315 1161" stroke-width="3" stroke="rgba(83, 0, 28, 1)"></path><path d="M310.5 1107 a4.5 4.5 0 1 0 9 0 a4.5 4.5 0 1 0 -9 0zM310.5 1161 a4.5 4.5 0 1 0 9 0 a4.5 4.5 0 1 0 -9 0z" fill="rgba(83, 0, 28, 1)"></path><path d="M135 495L153 513L153 531" stroke-width="3" stroke="rgba(83, 0, 28, 1)"></path><path d="M130.5 495 a4.5 4.5 0 1 0 9 0 a4.5 4.5 0 1 0 -9 0zM148.5 531 a4.5 4.5 0 1 0 9 0 a4.5 4.5 0 1 0 -9 0z" fill="rgba(83, 0, 28, 1)"></path><path d="M117 369L117 405" stroke-width="3" stroke="rgba(83, 0, 28, 1)"></path><path d="M112.5 369 a4.5 4.5 0 1 0 9 0 a4.5 4.5 0 1 0 -9 0zM112.5 405 a4.5 4.5 0 1 0 9 0 a4.5 4.5 0 1 0 -9 0z" fill="rgba(83, 0, 28, 1)"></path><path d="M81 297L63 279L63 261" stroke-width="3" stroke="rgba(83, 0, 28, 1)"></path><path d="M76.5 297 a4.5 4.5 0 1 0 9 0 a4.5 4.5 0 1 0 -9 0zM58.5 261 a4.5 4.5 0 1 0 9 0 a4.5 4.5 0 1 0 -9 0z" fill="rgba(83, 0, 28, 1)"></path><path d="M495 927L495 963" stroke-width="3" stroke="rgba(83, 0, 28, 1)"></path><path d="M490.5 927 a4.5 4.5 0 1 0 9 0 a4.5 4.5 0 1 0 -9 0zM490.5 963 a4.5 4.5 0 1 0 9 0 a4.5 4.5 0 1 0 -9 0z" fill="rgba(83, 0, 28, 1)"></path><path d="M81 333L45 297" stroke-width="3" stroke="rgba(83, 0, 28, 1)"></path><path d="M76.5 333 a4.5 4.5 0 1 0 9 0 a4.5 4.5 0 1 0 -9 0zM40.5 297 a4.5 4.5 0 1 0 9 0 a4.5 4.5 0 1 0 -9 0z" fill="rgba(83, 0, 28, 1)"></path><path d="M297 1125L297 1161" stroke-width="3" stroke="rgba(83, 0, 28, 1)"></path><path d="M292.5 1125 a4.5 4.5 0 1 0 9 0 a4.5 4.5 0 1 0 -9 0zM292.5 1161 a4.5 4.5 0 1 0 9 0 a4.5 4.5 0 1 0 -9 0z" fill="rgba(83, 0, 28, 1)"></path><path d="M45 477L45 441" stroke-width="3" stroke="rgba(83, 0, 28, 1)"></path><path d="M40.5 477 a4.5 4.5 0 1 0 9 0 a4.5 4.5 0 1 0 -9 0zM40.5 441 a4.5 4.5 0 1 0 9 0 a4.5 4.5 0 1 0 -9 0z" fill="rgba(83, 0, 28, 1)"></path></g></g><defs><mask id="SvgjsMask1225"><rect width="560" height="1200" fill="#ffffff"></rect></mask><mask id="SvgjsMask1226"><rect width="560" height="1200" fill="white"></rect><path d="M222.75 27 a2.25 2.25 0 1 0 4.5 0 a2.25 2.25 0 1 0 -4.5 0zM6.75 27 a2.25 2.25 0 1 0 4.5 0 a2.25 2.25 0 1 0 -4.5 0z" fill="black"></path><path d="M132.75 1071 a2.25 2.25 0 1 0 4.5 0 a2.25 2.25 0 1 0 -4.5 0zM474.75 1197 a2.25 2.25 0 1 0 4.5 0 a2.25 2.25 0 1 0 -4.5 0z" fill="black"></path><path d="M96.75 45 a2.25 2.25 0 1 0 4.5 0 a2.25 2.25 0 1 0 -4.5 0zM60.75 387 a2.25 2.25 0 1 0 4.5 0 a2.25 2.25 0 1 0 -4.5 0z" fill="black"></path><path d="M294.75 819 a2.25 2.25 0 1 0 4.5 0 a2.25 2.25 0 1 0 -4.5 0zM564.75 1161 a2.25 2.25 0 1 0 4.5 0 a2.25 2.25 0 1 0 -4.5 0z" fill="black"></path><path d="M222.75 1071 a2.25 2.25 0 1 0 4.5 0 a2.25 2.25 0 1 0 -4.5 0zM6.75 729 a2.25 2.25 0 1 0 4.5 0 a2.25 2.25 0 1 0 -4.5 0z" fill="black"></path><path d="M420.75 135 a2.25 2.25 0 1 0 4.5 0 a2.25 2.25 0 1 0 -4.5 0zM564.75 9 a2.25 2.25 0 1 0 4.5 0 a2.25 2.25 0 1 0 -4.5 0z" fill="black"></path><path d="M384.75 261 a2.25 2.25 0 1 0 4.5 0 a2.25 2.25 0 1 0 -4.5 0zM438.75 603 a2.25 2.25 0 1 0 4.5 0 a2.25 2.25 0 1 0 -4.5 0z" fill="black"></path><path d="M132.75 171 a2.25 2.25 0 1 0 4.5 0 a2.25 2.25 0 1 0 -4.5 0zM204.75 513 a2.25 2.25 0 1 0 4.5 0 a2.25 2.25 0 1 0 -4.5 0z" fill="black"></path><path d="M294.75 189 a2.25 2.25 0 1 0 4.5 0 a2.25 2.25 0 1 0 -4.5 0zM564.75 207 a2.25 2.25 0 1 0 4.5 0 a2.25 2.25 0 1 0 -4.5 0z" fill="black"></path><path d="M186.75 963 a2.25 2.25 0 1 0 4.5 0 a2.25 2.25 0 1 0 -4.5 0zM24.75 621 a2.25 2.25 0 1 0 4.5 0 a2.25 2.25 0 1 0 -4.5 0z" fill="black"></path><path d="M258.75 729 a2.25 2.25 0 1 0 4.5 0 a2.25 2.25 0 1 0 -4.5 0zM402.75 585 a2.25 2.25 0 1 0 4.5 0 a2.25 2.25 0 1 0 -4.5 0z" fill="black"></path><path d="M546.75 243 a2.25 2.25 0 1 0 4.5 0 a2.25 2.25 0 1 0 -4.5 0zM438.75 585 a2.25 2.25 0 1 0 4.5 0 a2.25 2.25 0 1 0 -4.5 0z" fill="black"></path><path d="M312.75 477 a2.25 2.25 0 1 0 4.5 0 a2.25 2.25 0 1 0 -4.5 0zM366.75 225 a2.25 2.25 0 1 0 4.5 0 a2.25 2.25 0 1 0 -4.5 0z" fill="black"></path><path d="M240.75 513 a2.25 2.25 0 1 0 4.5 0 a2.25 2.25 0 1 0 -4.5 0zM78.75 243 a2.25 2.25 0 1 0 4.5 0 a2.25 2.25 0 1 0 -4.5 0z" fill="black"></path><path d="M222.75 873 a2.25 2.25 0 1 0 4.5 0 a2.25 2.25 0 1 0 -4.5 0zM438.75 1179 a2.25 2.25 0 1 0 4.5 0 a2.25 2.25 0 1 0 -4.5 0z" fill="black"></path><path d="M474.75 1089 a2.25 2.25 0 1 0 4.5 0 a2.25 2.25 0 1 0 -4.5 0zM546.75 1143 a2.25 2.25 0 1 0 4.5 0 a2.25 2.25 0 1 0 -4.5 0z" fill="black"></path><path d="M42.75 1107 a2.25 2.25 0 1 0 4.5 0 a2.25 2.25 0 1 0 -4.5 0zM6.75 819 a2.25 2.25 0 1 0 4.5 0 a2.25 2.25 0 1 0 -4.5 0z" fill="black"></path><path d="M348.75 369 a2.25 2.25 0 1 0 4.5 0 a2.25 2.25 0 1 0 -4.5 0zM60.75 711 a2.25 2.25 0 1 0 4.5 0 a2.25 2.25 0 1 0 -4.5 0z" fill="black"></path><path d="M348.75 225 a2.25 2.25 0 1 0 4.5 0 a2.25 2.25 0 1 0 -4.5 0zM168.75 441 a2.25 2.25 0 1 0 4.5 0 a2.25 2.25 0 1 0 -4.5 0z" fill="black"></path><path d="M42.75 135 a2.25 2.25 0 1 0 4.5 0 a2.25 2.25 0 1 0 -4.5 0zM384.75 9 a2.25 2.25 0 1 0 4.5 0 a2.25 2.25 0 1 0 -4.5 0z" fill="black"></path><path d="M96.75 621 a2.25 2.25 0 1 0 4.5 0 a2.25 2.25 0 1 0 -4.5 0zM6.75 369 a2.25 2.25 0 1 0 4.5 0 a2.25 2.25 0 1 0 -4.5 0z" fill="black"></path><path d="M168.75 171 a2.25 2.25 0 1 0 4.5 0 a2.25 2.25 0 1 0 -4.5 0zM96.75 225 a2.25 2.25 0 1 0 4.5 0 a2.25 2.25 0 1 0 -4.5 0z" fill="black"></path><path d="M294.75 1017 a2.25 2.25 0 1 0 4.5 0 a2.25 2.25 0 1 0 -4.5 0zM240.75 711 a2.25 2.25 0 1 0 4.5 0 a2.25 2.25 0 1 0 -4.5 0z" fill="black"></path><path d="M402.75 747 a2.25 2.25 0 1 0 4.5 0 a2.25 2.25 0 1 0 -4.5 0zM564.75 1071 a2.25 2.25 0 1 0 4.5 0 a2.25 2.25 0 1 0 -4.5 0z" fill="black"></path><path d="M276.75 117 a2.25 2.25 0 1 0 4.5 0 a2.25 2.25 0 1 0 -4.5 0zM528.75 9 a2.25 2.25 0 1 0 4.5 0 a2.25 2.25 0 1 0 -4.5 0z" fill="black"></path><path d="M42.75 1179 a2.25 2.25 0 1 0 4.5 0 a2.25 2.25 0 1 0 -4.5 0zM132.75 1089 a2.25 2.25 0 1 0 4.5 0 a2.25 2.25 0 1 0 -4.5 0z" fill="black"></path><path d="M402.75 45 a2.25 2.25 0 1 0 4.5 0 a2.25 2.25 0 1 0 -4.5 0zM240.75 63 a2.25 2.25 0 1 0 4.5 0 a2.25 2.25 0 1 0 -4.5 0z" fill="black"></path><path d="M24.75 1143 a2.25 2.25 0 1 0 4.5 0 a2.25 2.25 0 1 0 -4.5 0zM24.75 1197 a2.25 2.25 0 1 0 4.5 0 a2.25 2.25 0 1 0 -4.5 0z" fill="black"></path><path d="M438.75 675 a2.25 2.25 0 1 0 4.5 0 a2.25 2.25 0 1 0 -4.5 0zM312.75 855 a2.25 2.25 0 1 0 4.5 0 a2.25 2.25 0 1 0 -4.5 0z" fill="black"></path><path d="M132.75 279 a2.25 2.25 0 1 0 4.5 0 a2.25 2.25 0 1 0 -4.5 0zM330.75 243 a2.25 2.25 0 1 0 4.5 0 a2.25 2.25 0 1 0 -4.5 0z" fill="black"></path><path d="M546.75 27 a2.25 2.25 0 1 0 4.5 0 a2.25 2.25 0 1 0 -4.5 0zM204.75 225 a2.25 2.25 0 1 0 4.5 0 a2.25 2.25 0 1 0 -4.5 0z" fill="black"></path><path d="M114.75 441 a2.25 2.25 0 1 0 4.5 0 a2.25 2.25 0 1 0 -4.5 0zM168.75 585 a2.25 2.25 0 1 0 4.5 0 a2.25 2.25 0 1 0 -4.5 0z" fill="black"></path><path d="M294.75 81 a2.25 2.25 0 1 0 4.5 0 a2.25 2.25 0 1 0 -4.5 0zM294.75 117 a2.25 2.25 0 1 0 4.5 0 a2.25 2.25 0 1 0 -4.5 0z" fill="black"></path><path d="M564.75 675 a2.25 2.25 0 1 0 4.5 0 a2.25 2.25 0 1 0 -4.5 0zM564.75 891 a2.25 2.25 0 1 0 4.5 0 a2.25 2.25 0 1 0 -4.5 0z" fill="black"></path><path d="M564.75 819 a2.25 2.25 0 1 0 4.5 0 a2.25 2.25 0 1 0 -4.5 0zM564.75 711 a2.25 2.25 0 1 0 4.5 0 a2.25 2.25 0 1 0 -4.5 0z" fill="black"></path><path d="M132.75 837 a2.25 2.25 0 1 0 4.5 0 a2.25 2.25 0 1 0 -4.5 0zM204.75 981 a2.25 2.25 0 1 0 4.5 0 a2.25 2.25 0 1 0 -4.5 0z" fill="black"></path><path d="M204.75 747 a2.25 2.25 0 1 0 4.5 0 a2.25 2.25 0 1 0 -4.5 0zM42.75 639 a2.25 2.25 0 1 0 4.5 0 a2.25 2.25 0 1 0 -4.5 0z" fill="black"></path><path d="M456.75 819 a2.25 2.25 0 1 0 4.5 0 a2.25 2.25 0 1 0 -4.5 0zM402.75 711 a2.25 2.25 0 1 0 4.5 0 a2.25 2.25 0 1 0 -4.5 0z" fill="black"></path><path d="M6.75 1017 a2.25 2.25 0 1 0 4.5 0 a2.25 2.25 0 1 0 -4.5 0zM96.75 927 a2.25 2.25 0 1 0 4.5 0 a2.25 2.25 0 1 0 -4.5 0z" fill="black"></path><path d="M492.75 495 a2.25 2.25 0 1 0 4.5 0 a2.25 2.25 0 1 0 -4.5 0zM474.75 801 a2.25 2.25 0 1 0 4.5 0 a2.25 2.25 0 1 0 -4.5 0z" fill="black"></path><path d="M294.75 909 a2.25 2.25 0 1 0 4.5 0 a2.25 2.25 0 1 0 -4.5 0zM492.75 1161 a2.25 2.25 0 1 0 4.5 0 a2.25 2.25 0 1 0 -4.5 0z" fill="black"></path><path d="M546.75 999 a2.25 2.25 0 1 0 4.5 0 a2.25 2.25 0 1 0 -4.5 0zM546.75 1053 a2.25 2.25 0 1 0 4.5 0 a2.25 2.25 0 1 0 -4.5 0z" fill="black"></path><path d="M510.75 945 a2.25 2.25 0 1 0 4.5 0 a2.25 2.25 0 1 0 -4.5 0zM528.75 1035 a2.25 2.25 0 1 0 4.5 0 a2.25 2.25 0 1 0 -4.5 0z" fill="black"></path><path d="M240.75 405 a2.25 2.25 0 1 0 4.5 0 a2.25 2.25 0 1 0 -4.5 0zM240.75 495 a2.25 2.25 0 1 0 4.5 0 a2.25 2.25 0 1 0 -4.5 0z" fill="black"></path><path d="M510.75 387 a2.25 2.25 0 1 0 4.5 0 a2.25 2.25 0 1 0 -4.5 0zM564.75 225 a2.25 2.25 0 1 0 4.5 0 a2.25 2.25 0 1 0 -4.5 0z" fill="black"></path><path d="M348.75 1179 a2.25 2.25 0 1 0 4.5 0 a2.25 2.25 0 1 0 -4.5 0zM204.75 1017 a2.25 2.25 0 1 0 4.5 0 a2.25 2.25 0 1 0 -4.5 0z" fill="black"></path><path d="M60.75 63 a2.25 2.25 0 1 0 4.5 0 a2.25 2.25 0 1 0 -4.5 0zM6.75 45 a2.25 2.25 0 1 0 4.5 0 a2.25 2.25 0 1 0 -4.5 0z" fill="black"></path><path d="M384.75 99 a2.25 2.25 0 1 0 4.5 0 a2.25 2.25 0 1 0 -4.5 0zM510.75 27 a2.25 2.25 0 1 0 4.5 0 a2.25 2.25 0 1 0 -4.5 0z" fill="black"></path><path d="M114.75 99 a2.25 2.25 0 1 0 4.5 0 a2.25 2.25 0 1 0 -4.5 0zM78.75 153 a2.25 2.25 0 1 0 4.5 0 a2.25 2.25 0 1 0 -4.5 0z" fill="black"></path><path d="M294.75 441 a2.25 2.25 0 1 0 4.5 0 a2.25 2.25 0 1 0 -4.5 0zM330.75 387 a2.25 2.25 0 1 0 4.5 0 a2.25 2.25 0 1 0 -4.5 0z" fill="black"></path><path d="M204.75 1089 a2.25 2.25 0 1 0 4.5 0 a2.25 2.25 0 1 0 -4.5 0zM204.75 1035 a2.25 2.25 0 1 0 4.5 0 a2.25 2.25 0 1 0 -4.5 0z" fill="black"></path><path d="M78.75 351 a2.25 2.25 0 1 0 4.5 0 a2.25 2.25 0 1 0 -4.5 0zM132.75 315 a2.25 2.25 0 1 0 4.5 0 a2.25 2.25 0 1 0 -4.5 0z" fill="black"></path><path d="M438.75 63 a2.25 2.25 0 1 0 4.5 0 a2.25 2.25 0 1 0 -4.5 0zM294.75 153 a2.25 2.25 0 1 0 4.5 0 a2.25 2.25 0 1 0 -4.5 0z" fill="black"></path><path d="M114.75 333 a2.25 2.25 0 1 0 4.5 0 a2.25 2.25 0 1 0 -4.5 0zM132.75 423 a2.25 2.25 0 1 0 4.5 0 a2.25 2.25 0 1 0 -4.5 0z" fill="black"></path><path d="M204.75 9 a2.25 2.25 0 1 0 4.5 0 a2.25 2.25 0 1 0 -4.5 0zM6.75 9 a2.25 2.25 0 1 0 4.5 0 a2.25 2.25 0 1 0 -4.5 0z" fill="black"></path><path d="M474.75 585 a2.25 2.25 0 1 0 4.5 0 a2.25 2.25 0 1 0 -4.5 0zM546.75 315 a2.25 2.25 0 1 0 4.5 0 a2.25 2.25 0 1 0 -4.5 0z" fill="black"></path><path d="M258.75 189 a2.25 2.25 0 1 0 4.5 0 a2.25 2.25 0 1 0 -4.5 0zM96.75 243 a2.25 2.25 0 1 0 4.5 0 a2.25 2.25 0 1 0 -4.5 0z" fill="black"></path><path d="M528.75 477 a2.25 2.25 0 1 0 4.5 0 a2.25 2.25 0 1 0 -4.5 0zM564.75 549 a2.25 2.25 0 1 0 4.5 0 a2.25 2.25 0 1 0 -4.5 0z" fill="black"></path><path d="M96.75 477 a2.25 2.25 0 1 0 4.5 0 a2.25 2.25 0 1 0 -4.5 0zM42.75 603 a2.25 2.25 0 1 0 4.5 0 a2.25 2.25 0 1 0 -4.5 0z" fill="black"></path><path d="M474.75 567 a2.25 2.25 0 1 0 4.5 0 a2.25 2.25 0 1 0 -4.5 0zM420.75 459 a2.25 2.25 0 1 0 4.5 0 a2.25 2.25 0 1 0 -4.5 0z" fill="black"></path><path d="M258.75 909 a2.25 2.25 0 1 0 4.5 0 a2.25 2.25 0 1 0 -4.5 0zM456.75 1071 a2.25 2.25 0 1 0 4.5 0 a2.25 2.25 0 1 0 -4.5 0z" fill="black"></path><path d="M528.75 495 a2.25 2.25 0 1 0 4.5 0 a2.25 2.25 0 1 0 -4.5 0zM474.75 369 a2.25 2.25 0 1 0 4.5 0 a2.25 2.25 0 1 0 -4.5 0z" fill="black"></path><path d="M132.75 1179 a2.25 2.25 0 1 0 4.5 0 a2.25 2.25 0 1 0 -4.5 0zM150.75 1107 a2.25 2.25 0 1 0 4.5 0 a2.25 2.25 0 1 0 -4.5 0z" fill="black"></path><path d="M564.75 117 a2.25 2.25 0 1 0 4.5 0 a2.25 2.25 0 1 0 -4.5 0zM564.75 27 a2.25 2.25 0 1 0 4.5 0 a2.25 2.25 0 1 0 -4.5 0z" fill="black"></path><path d="M42.75 909 a2.25 2.25 0 1 0 4.5 0 a2.25 2.25 0 1 0 -4.5 0zM6.75 837 a2.25 2.25 0 1 0 4.5 0 a2.25 2.25 0 1 0 -4.5 0z" fill="black"></path><path d="M528.75 1179 a2.25 2.25 0 1 0 4.5 0 a2.25 2.25 0 1 0 -4.5 0zM564.75 1197 a2.25 2.25 0 1 0 4.5 0 a2.25 2.25 0 1 0 -4.5 0z" fill="black"></path><path d="M330.75 225 a2.25 2.25 0 1 0 4.5 0 a2.25 2.25 0 1 0 -4.5 0zM168.75 297 a2.25 2.25 0 1 0 4.5 0 a2.25 2.25 0 1 0 -4.5 0z" fill="black"></path><path d="M150.75 225 a2.25 2.25 0 1 0 4.5 0 a2.25 2.25 0 1 0 -4.5 0zM240.75 171 a2.25 2.25 0 1 0 4.5 0 a2.25 2.25 0 1 0 -4.5 0z" fill="black"></path><path d="M366.75 963 a2.25 2.25 0 1 0 4.5 0 a2.25 2.25 0 1 0 -4.5 0zM366.75 909 a2.25 2.25 0 1 0 4.5 0 a2.25 2.25 0 1 0 -4.5 0z" fill="black"></path><path d="M276.75 459 a2.25 2.25 0 1 0 4.5 0 a2.25 2.25 0 1 0 -4.5 0zM276.75 387 a2.25 2.25 0 1 0 4.5 0 a2.25 2.25 0 1 0 -4.5 0z" fill="black"></path><path d="M438.75 909 a2.25 2.25 0 1 0 4.5 0 a2.25 2.25 0 1 0 -4.5 0zM330.75 837 a2.25 2.25 0 1 0 4.5 0 a2.25 2.25 0 1 0 -4.5 0z" fill="black"></path><path d="M132.75 531 a2.25 2.25 0 1 0 4.5 0 a2.25 2.25 0 1 0 -4.5 0zM222.75 513 a2.25 2.25 0 1 0 4.5 0 a2.25 2.25 0 1 0 -4.5 0z" fill="black"></path><path d="M456.75 315 a2.25 2.25 0 1 0 4.5 0 a2.25 2.25 0 1 0 -4.5 0zM402.75 369 a2.25 2.25 0 1 0 4.5 0 a2.25 2.25 0 1 0 -4.5 0z" fill="black"></path><path d="M6.75 1143 a2.25 2.25 0 1 0 4.5 0 a2.25 2.25 0 1 0 -4.5 0zM60.75 1071 a2.25 2.25 0 1 0 4.5 0 a2.25 2.25 0 1 0 -4.5 0z" fill="black"></path><path d="M528.75 639 a2.25 2.25 0 1 0 4.5 0 a2.25 2.25 0 1 0 -4.5 0zM348.75 801 a2.25 2.25 0 1 0 4.5 0 a2.25 2.25 0 1 0 -4.5 0z" fill="black"></path><path d="M312.75 981 a2.25 2.25 0 1 0 4.5 0 a2.25 2.25 0 1 0 -4.5 0zM312.75 891 a2.25 2.25 0 1 0 4.5 0 a2.25 2.25 0 1 0 -4.5 0z" fill="black"></path><path d="M168.75 1161 a2.25 2.25 0 1 0 4.5 0 a2.25 2.25 0 1 0 -4.5 0zM78.75 1197 a2.25 2.25 0 1 0 4.5 0 a2.25 2.25 0 1 0 -4.5 0z" fill="black"></path><path d="M168.75 783 a2.25 2.25 0 1 0 4.5 0 a2.25 2.25 0 1 0 -4.5 0zM222.75 783 a2.25 2.25 0 1 0 4.5 0 a2.25 2.25 0 1 0 -4.5 0z" fill="black"></path><path d="M420.75 315 a2.25 2.25 0 1 0 4.5 0 a2.25 2.25 0 1 0 -4.5 0zM546.75 225 a2.25 2.25 0 1 0 4.5 0 a2.25 2.25 0 1 0 -4.5 0z" fill="black"></path><path d="M60.75 207 a2.25 2.25 0 1 0 4.5 0 a2.25 2.25 0 1 0 -4.5 0zM24.75 135 a2.25 2.25 0 1 0 4.5 0 a2.25 2.25 0 1 0 -4.5 0z" fill="black"></path><path d="M294.75 45 a2.25 2.25 0 1 0 4.5 0 a2.25 2.25 0 1 0 -4.5 0zM366.75 45 a2.25 2.25 0 1 0 4.5 0 a2.25 2.25 0 1 0 -4.5 0z" fill="black"></path><path d="M474.75 171 a2.25 2.25 0 1 0 4.5 0 a2.25 2.25 0 1 0 -4.5 0zM402.75 189 a2.25 2.25 0 1 0 4.5 0 a2.25 2.25 0 1 0 -4.5 0z" fill="black"></path><path d="M366.75 81 a2.25 2.25 0 1 0 4.5 0 a2.25 2.25 0 1 0 -4.5 0zM312.75 153 a2.25 2.25 0 1 0 4.5 0 a2.25 2.25 0 1 0 -4.5 0z" fill="black"></path><path d="M240.75 567 a2.25 2.25 0 1 0 4.5 0 a2.25 2.25 0 1 0 -4.5 0zM150.75 765 a2.25 2.25 0 1 0 4.5 0 a2.25 2.25 0 1 0 -4.5 0z" fill="black"></path><path d="M474.75 243 a2.25 2.25 0 1 0 4.5 0 a2.25 2.25 0 1 0 -4.5 0zM438.75 297 a2.25 2.25 0 1 0 4.5 0 a2.25 2.25 0 1 0 -4.5 0z" fill="black"></path><path d="M420.75 99 a2.25 2.25 0 1 0 4.5 0 a2.25 2.25 0 1 0 -4.5 0zM492.75 45 a2.25 2.25 0 1 0 4.5 0 a2.25 2.25 0 1 0 -4.5 0z" fill="black"></path><path d="M546.75 963 a2.25 2.25 0 1 0 4.5 0 a2.25 2.25 0 1 0 -4.5 0zM528.75 1017 a2.25 2.25 0 1 0 4.5 0 a2.25 2.25 0 1 0 -4.5 0z" fill="black"></path><path d="M510.75 819 a2.25 2.25 0 1 0 4.5 0 a2.25 2.25 0 1 0 -4.5 0zM564.75 873 a2.25 2.25 0 1 0 4.5 0 a2.25 2.25 0 1 0 -4.5 0z" fill="black"></path><path d="M276.75 279 a2.25 2.25 0 1 0 4.5 0 a2.25 2.25 0 1 0 -4.5 0zM330.75 279 a2.25 2.25 0 1 0 4.5 0 a2.25 2.25 0 1 0 -4.5 0z" fill="black"></path><path d="M204.75 441 a2.25 2.25 0 1 0 4.5 0 a2.25 2.25 0 1 0 -4.5 0zM258.75 387 a2.25 2.25 0 1 0 4.5 0 a2.25 2.25 0 1 0 -4.5 0z" fill="black"></path><path d="M168.75 495 a2.25 2.25 0 1 0 4.5 0 a2.25 2.25 0 1 0 -4.5 0zM204.75 531 a2.25 2.25 0 1 0 4.5 0 a2.25 2.25 0 1 0 -4.5 0z" fill="black"></path><path d="M528.75 153 a2.25 2.25 0 1 0 4.5 0 a2.25 2.25 0 1 0 -4.5 0zM438.75 153 a2.25 2.25 0 1 0 4.5 0 a2.25 2.25 0 1 0 -4.5 0z" fill="black"></path><path d="M114.75 963 a2.25 2.25 0 1 0 4.5 0 a2.25 2.25 0 1 0 -4.5 0zM42.75 1089 a2.25 2.25 0 1 0 4.5 0 a2.25 2.25 0 1 0 -4.5 0z" fill="black"></path><path d="M456.75 531 a2.25 2.25 0 1 0 4.5 0 a2.25 2.25 0 1 0 -4.5 0zM420.75 531 a2.25 2.25 0 1 0 4.5 0 a2.25 2.25 0 1 0 -4.5 0z" fill="black"></path><path d="M96.75 81 a2.25 2.25 0 1 0 4.5 0 a2.25 2.25 0 1 0 -4.5 0zM204.75 45 a2.25 2.25 0 1 0 4.5 0 a2.25 2.25 0 1 0 -4.5 0z" fill="black"></path><path d="M402.75 855 a2.25 2.25 0 1 0 4.5 0 a2.25 2.25 0 1 0 -4.5 0zM528.75 981 a2.25 2.25 0 1 0 4.5 0 a2.25 2.25 0 1 0 -4.5 0z" fill="black"></path><path d="M492.75 657 a2.25 2.25 0 1 0 4.5 0 a2.25 2.25 0 1 0 -4.5 0zM474.75 531 a2.25 2.25 0 1 0 4.5 0 a2.25 2.25 0 1 0 -4.5 0z" fill="black"></path><path d="M384.75 837 a2.25 2.25 0 1 0 4.5 0 a2.25 2.25 0 1 0 -4.5 0zM474.75 837 a2.25 2.25 0 1 0 4.5 0 a2.25 2.25 0 1 0 -4.5 0z" fill="black"></path><path d="M312.75 639 a2.25 2.25 0 1 0 4.5 0 a2.25 2.25 0 1 0 -4.5 0zM78.75 801 a2.25 2.25 0 1 0 4.5 0 a2.25 2.25 0 1 0 -4.5 0z" fill="black"></path><path d="M348.75 1161 a2.25 2.25 0 1 0 4.5 0 a2.25 2.25 0 1 0 -4.5 0zM384.75 1179 a2.25 2.25 0 1 0 4.5 0 a2.25 2.25 0 1 0 -4.5 0z" fill="black"></path><path d="M114.75 567 a2.25 2.25 0 1 0 4.5 0 a2.25 2.25 0 1 0 -4.5 0zM60.75 693 a2.25 2.25 0 1 0 4.5 0 a2.25 2.25 0 1 0 -4.5 0z" fill="black"></path><path d="M402.75 801 a2.25 2.25 0 1 0 4.5 0 a2.25 2.25 0 1 0 -4.5 0zM438.75 801 a2.25 2.25 0 1 0 4.5 0 a2.25 2.25 0 1 0 -4.5 0z" fill="black"></path><path d="M402.75 351 a2.25 2.25 0 1 0 4.5 0 a2.25 2.25 0 1 0 -4.5 0zM510.75 225 a2.25 2.25 0 1 0 4.5 0 a2.25 2.25 0 1 0 -4.5 0z" fill="black"></path><path d="M492.75 99 a2.25 2.25 0 1 0 4.5 0 a2.25 2.25 0 1 0 -4.5 0zM438.75 189 a2.25 2.25 0 1 0 4.5 0 a2.25 2.25 0 1 0 -4.5 0z" fill="black"></path><path d="M258.75 405 a2.25 2.25 0 1 0 4.5 0 a2.25 2.25 0 1 0 -4.5 0zM258.75 495 a2.25 2.25 0 1 0 4.5 0 a2.25 2.25 0 1 0 -4.5 0z" fill="black"></path><path d="M474.75 963 a2.25 2.25 0 1 0 4.5 0 a2.25 2.25 0 1 0 -4.5 0zM474.75 873 a2.25 2.25 0 1 0 4.5 0 a2.25 2.25 0 1 0 -4.5 0z" fill="black"></path><path d="M330.75 765 a2.25 2.25 0 1 0 4.5 0 a2.25 2.25 0 1 0 -4.5 0zM420.75 783 a2.25 2.25 0 1 0 4.5 0 a2.25 2.25 0 1 0 -4.5 0z" fill="black"></path><path d="M348.75 603 a2.25 2.25 0 1 0 4.5 0 a2.25 2.25 0 1 0 -4.5 0zM186.75 621 a2.25 2.25 0 1 0 4.5 0 a2.25 2.25 0 1 0 -4.5 0z" fill="black"></path><path d="M474.75 657 a2.25 2.25 0 1 0 4.5 0 a2.25 2.25 0 1 0 -4.5 0zM438.75 729 a2.25 2.25 0 1 0 4.5 0 a2.25 2.25 0 1 0 -4.5 0z" fill="black"></path><path d="M384.75 765 a2.25 2.25 0 1 0 4.5 0 a2.25 2.25 0 1 0 -4.5 0zM384.75 801 a2.25 2.25 0 1 0 4.5 0 a2.25 2.25 0 1 0 -4.5 0z" fill="black"></path><path d="M276.75 549 a2.25 2.25 0 1 0 4.5 0 a2.25 2.25 0 1 0 -4.5 0zM240.75 549 a2.25 2.25 0 1 0 4.5 0 a2.25 2.25 0 1 0 -4.5 0z" fill="black"></path><path d="M546.75 459 a2.25 2.25 0 1 0 4.5 0 a2.25 2.25 0 1 0 -4.5 0zM564.75 351 a2.25 2.25 0 1 0 4.5 0 a2.25 2.25 0 1 0 -4.5 0z" fill="black"></path><path d="M114.75 729 a2.25 2.25 0 1 0 4.5 0 a2.25 2.25 0 1 0 -4.5 0zM312.75 657 a2.25 2.25 0 1 0 4.5 0 a2.25 2.25 0 1 0 -4.5 0z" fill="black"></path><path d="M168.75 1035 a2.25 2.25 0 1 0 4.5 0 a2.25 2.25 0 1 0 -4.5 0zM168.75 1089 a2.25 2.25 0 1 0 4.5 0 a2.25 2.25 0 1 0 -4.5 0z" fill="black"></path><path d="M150.75 495 a2.25 2.25 0 1 0 4.5 0 a2.25 2.25 0 1 0 -4.5 0zM132.75 459 a2.25 2.25 0 1 0 4.5 0 a2.25 2.25 0 1 0 -4.5 0z" fill="black"></path><path d="M186.75 351 a2.25 2.25 0 1 0 4.5 0 a2.25 2.25 0 1 0 -4.5 0zM168.75 387 a2.25 2.25 0 1 0 4.5 0 a2.25 2.25 0 1 0 -4.5 0z" fill="black"></path><path d="M492.75 1035 a2.25 2.25 0 1 0 4.5 0 a2.25 2.25 0 1 0 -4.5 0zM384.75 927 a2.25 2.25 0 1 0 4.5 0 a2.25 2.25 0 1 0 -4.5 0z" fill="black"></path><path d="M204.75 1161 a2.25 2.25 0 1 0 4.5 0 a2.25 2.25 0 1 0 -4.5 0zM168.75 1125 a2.25 2.25 0 1 0 4.5 0 a2.25 2.25 0 1 0 -4.5 0z" fill="black"></path><path d="M204.75 171 a2.25 2.25 0 1 0 4.5 0 a2.25 2.25 0 1 0 -4.5 0zM186.75 117 a2.25 2.25 0 1 0 4.5 0 a2.25 2.25 0 1 0 -4.5 0z" fill="black"></path><path d="M456.75 1053 a2.25 2.25 0 1 0 4.5 0 a2.25 2.25 0 1 0 -4.5 0zM366.75 999 a2.25 2.25 0 1 0 4.5 0 a2.25 2.25 0 1 0 -4.5 0z" fill="black"></path><path d="M348.75 783 a2.25 2.25 0 1 0 4.5 0 a2.25 2.25 0 1 0 -4.5 0zM312.75 783 a2.25 2.25 0 1 0 4.5 0 a2.25 2.25 0 1 0 -4.5 0z" fill="black"></path><path d="M78.75 639 a2.25 2.25 0 1 0 4.5 0 a2.25 2.25 0 1 0 -4.5 0zM60.75 675 a2.25 2.25 0 1 0 4.5 0 a2.25 2.25 0 1 0 -4.5 0z" fill="black"></path><path d="M294.75 549 a2.25 2.25 0 1 0 4.5 0 a2.25 2.25 0 1 0 -4.5 0zM204.75 603 a2.25 2.25 0 1 0 4.5 0 a2.25 2.25 0 1 0 -4.5 0z" fill="black"></path><path d="M510.75 1089 a2.25 2.25 0 1 0 4.5 0 a2.25 2.25 0 1 0 -4.5 0zM474.75 1053 a2.25 2.25 0 1 0 4.5 0 a2.25 2.25 0 1 0 -4.5 0z" fill="black"></path><path d="M366.75 459 a2.25 2.25 0 1 0 4.5 0 a2.25 2.25 0 1 0 -4.5 0zM258.75 531 a2.25 2.25 0 1 0 4.5 0 a2.25 2.25 0 1 0 -4.5 0z" fill="black"></path><path d="M456.75 1143 a2.25 2.25 0 1 0 4.5 0 a2.25 2.25 0 1 0 -4.5 0zM366.75 1071 a2.25 2.25 0 1 0 4.5 0 a2.25 2.25 0 1 0 -4.5 0z" fill="black"></path><path d="M96.75 999 a2.25 2.25 0 1 0 4.5 0 a2.25 2.25 0 1 0 -4.5 0zM60.75 1053 a2.25 2.25 0 1 0 4.5 0 a2.25 2.25 0 1 0 -4.5 0z" fill="black"></path><path d="M186.75 873 a2.25 2.25 0 1 0 4.5 0 a2.25 2.25 0 1 0 -4.5 0zM168.75 801 a2.25 2.25 0 1 0 4.5 0 a2.25 2.25 0 1 0 -4.5 0z" fill="black"></path><path d="M132.75 1053 a2.25 2.25 0 1 0 4.5 0 a2.25 2.25 0 1 0 -4.5 0zM42.75 1143 a2.25 2.25 0 1 0 4.5 0 a2.25 2.25 0 1 0 -4.5 0z" fill="black"></path><path d="M6.75 927 a2.25 2.25 0 1 0 4.5 0 a2.25 2.25 0 1 0 -4.5 0zM78.75 909 a2.25 2.25 0 1 0 4.5 0 a2.25 2.25 0 1 0 -4.5 0z" fill="black"></path><path d="M456.75 1179 a2.25 2.25 0 1 0 4.5 0 a2.25 2.25 0 1 0 -4.5 0zM564.75 1179 a2.25 2.25 0 1 0 4.5 0 a2.25 2.25 0 1 0 -4.5 0z" fill="black"></path><path d="M222.75 675 a2.25 2.25 0 1 0 4.5 0 a2.25 2.25 0 1 0 -4.5 0zM150.75 747 a2.25 2.25 0 1 0 4.5 0 a2.25 2.25 0 1 0 -4.5 0z" fill="black"></path><path d="M312.75 513 a2.25 2.25 0 1 0 4.5 0 a2.25 2.25 0 1 0 -4.5 0zM366.75 513 a2.25 2.25 0 1 0 4.5 0 a2.25 2.25 0 1 0 -4.5 0z" fill="black"></path><path d="M78.75 459 a2.25 2.25 0 1 0 4.5 0 a2.25 2.25 0 1 0 -4.5 0zM60.75 603 a2.25 2.25 0 1 0 4.5 0 a2.25 2.25 0 1 0 -4.5 0z" fill="black"></path><path d="M42.75 945 a2.25 2.25 0 1 0 4.5 0 a2.25 2.25 0 1 0 -4.5 0zM6.75 999 a2.25 2.25 0 1 0 4.5 0 a2.25 2.25 0 1 0 -4.5 0z" fill="black"></path><path d="M96.75 549 a2.25 2.25 0 1 0 4.5 0 a2.25 2.25 0 1 0 -4.5 0zM96.75 495 a2.25 2.25 0 1 0 4.5 0 a2.25 2.25 0 1 0 -4.5 0z" fill="black"></path><path d="M24.75 63 a2.25 2.25 0 1 0 4.5 0 a2.25 2.25 0 1 0 -4.5 0zM6.75 117 a2.25 2.25 0 1 0 4.5 0 a2.25 2.25 0 1 0 -4.5 0z" fill="black"></path><path d="M114.75 63 a2.25 2.25 0 1 0 4.5 0 a2.25 2.25 0 1 0 -4.5 0zM186.75 45 a2.25 2.25 0 1 0 4.5 0 a2.25 2.25 0 1 0 -4.5 0z" fill="black"></path><path d="M258.75 675 a2.25 2.25 0 1 0 4.5 0 a2.25 2.25 0 1 0 -4.5 0zM168.75 729 a2.25 2.25 0 1 0 4.5 0 a2.25 2.25 0 1 0 -4.5 0z" fill="black"></path><path d="M402.75 621 a2.25 2.25 0 1 0 4.5 0 a2.25 2.25 0 1 0 -4.5 0zM366.75 693 a2.25 2.25 0 1 0 4.5 0 a2.25 2.25 0 1 0 -4.5 0z" fill="black"></path><path d="M348.75 63 a2.25 2.25 0 1 0 4.5 0 a2.25 2.25 0 1 0 -4.5 0zM276.75 63 a2.25 2.25 0 1 0 4.5 0 a2.25 2.25 0 1 0 -4.5 0z" fill="black"></path><path d="M546.75 837 a2.25 2.25 0 1 0 4.5 0 a2.25 2.25 0 1 0 -4.5 0zM546.75 729 a2.25 2.25 0 1 0 4.5 0 a2.25 2.25 0 1 0 -4.5 0z" fill="black"></path><path d="M456.75 405 a2.25 2.25 0 1 0 4.5 0 a2.25 2.25 0 1 0 -4.5 0zM492.75 477 a2.25 2.25 0 1 0 4.5 0 a2.25 2.25 0 1 0 -4.5 0z" fill="black"></path><path d="M546.75 333 a2.25 2.25 0 1 0 4.5 0 a2.25 2.25 0 1 0 -4.5 0zM492.75 369 a2.25 2.25 0 1 0 4.5 0 a2.25 2.25 0 1 0 -4.5 0z" fill="black"></path><path d="M132.75 1161 a2.25 2.25 0 1 0 4.5 0 a2.25 2.25 0 1 0 -4.5 0zM132.75 1107 a2.25 2.25 0 1 0 4.5 0 a2.25 2.25 0 1 0 -4.5 0z" fill="black"></path><path d="M510.75 603 a2.25 2.25 0 1 0 4.5 0 a2.25 2.25 0 1 0 -4.5 0zM510.75 657 a2.25 2.25 0 1 0 4.5 0 a2.25 2.25 0 1 0 -4.5 0z" fill="black"></path><path d="M150.75 1071 a2.25 2.25 0 1 0 4.5 0 a2.25 2.25 0 1 0 -4.5 0zM150.75 1017 a2.25 2.25 0 1 0 4.5 0 a2.25 2.25 0 1 0 -4.5 0z" fill="black"></path><path d="M348.75 531 a2.25 2.25 0 1 0 4.5 0 a2.25 2.25 0 1 0 -4.5 0zM240.75 603 a2.25 2.25 0 1 0 4.5 0 a2.25 2.25 0 1 0 -4.5 0z" fill="black"></path><path d="M384.75 567 a2.25 2.25 0 1 0 4.5 0 a2.25 2.25 0 1 0 -4.5 0zM294.75 603 a2.25 2.25 0 1 0 4.5 0 a2.25 2.25 0 1 0 -4.5 0z" fill="black"></path><path d="M24.75 189 a2.25 2.25 0 1 0 4.5 0 a2.25 2.25 0 1 0 -4.5 0zM24.75 153 a2.25 2.25 0 1 0 4.5 0 a2.25 2.25 0 1 0 -4.5 0z" fill="black"></path><path d="M6.75 981 a2.25 2.25 0 1 0 4.5 0 a2.25 2.25 0 1 0 -4.5 0zM6.75 945 a2.25 2.25 0 1 0 4.5 0 a2.25 2.25 0 1 0 -4.5 0z" fill="black"></path><path d="M402.75 243 a2.25 2.25 0 1 0 4.5 0 a2.25 2.25 0 1 0 -4.5 0zM438.75 225 a2.25 2.25 0 1 0 4.5 0 a2.25 2.25 0 1 0 -4.5 0z" fill="black"></path><path d="M420.75 1089 a2.25 2.25 0 1 0 4.5 0 a2.25 2.25 0 1 0 -4.5 0zM402.75 1125 a2.25 2.25 0 1 0 4.5 0 a2.25 2.25 0 1 0 -4.5 0z" fill="black"></path><path d="M402.75 999 a2.25 2.25 0 1 0 4.5 0 a2.25 2.25 0 1 0 -4.5 0zM420.75 1035 a2.25 2.25 0 1 0 4.5 0 a2.25 2.25 0 1 0 -4.5 0z" fill="black"></path><path d="M24.75 585 a2.25 2.25 0 1 0 4.5 0 a2.25 2.25 0 1 0 -4.5 0zM24.75 531 a2.25 2.25 0 1 0 4.5 0 a2.25 2.25 0 1 0 -4.5 0z" fill="black"></path><path d="M276.75 243 a2.25 2.25 0 1 0 4.5 0 a2.25 2.25 0 1 0 -4.5 0zM186.75 315 a2.25 2.25 0 1 0 4.5 0 a2.25 2.25 0 1 0 -4.5 0z" fill="black"></path><path d="M528.75 603 a2.25 2.25 0 1 0 4.5 0 a2.25 2.25 0 1 0 -4.5 0zM546.75 657 a2.25 2.25 0 1 0 4.5 0 a2.25 2.25 0 1 0 -4.5 0z" fill="black"></path><path d="M330.75 1017 a2.25 2.25 0 1 0 4.5 0 a2.25 2.25 0 1 0 -4.5 0zM330.75 891 a2.25 2.25 0 1 0 4.5 0 a2.25 2.25 0 1 0 -4.5 0z" fill="black"></path><path d="M60.75 459 a2.25 2.25 0 1 0 4.5 0 a2.25 2.25 0 1 0 -4.5 0zM60.75 423 a2.25 2.25 0 1 0 4.5 0 a2.25 2.25 0 1 0 -4.5 0z" fill="black"></path><path d="M294.75 207 a2.25 2.25 0 1 0 4.5 0 a2.25 2.25 0 1 0 -4.5 0zM258.75 207 a2.25 2.25 0 1 0 4.5 0 a2.25 2.25 0 1 0 -4.5 0z" fill="black"></path><path d="M186.75 711 a2.25 2.25 0 1 0 4.5 0 a2.25 2.25 0 1 0 -4.5 0zM222.75 693 a2.25 2.25 0 1 0 4.5 0 a2.25 2.25 0 1 0 -4.5 0z" fill="black"></path><path d="M204.75 423 a2.25 2.25 0 1 0 4.5 0 a2.25 2.25 0 1 0 -4.5 0zM222.75 477 a2.25 2.25 0 1 0 4.5 0 a2.25 2.25 0 1 0 -4.5 0z" fill="black"></path><path d="M258.75 1107 a2.25 2.25 0 1 0 4.5 0 a2.25 2.25 0 1 0 -4.5 0zM240.75 1035 a2.25 2.25 0 1 0 4.5 0 a2.25 2.25 0 1 0 -4.5 0z" fill="black"></path><path d="M438.75 1089 a2.25 2.25 0 1 0 4.5 0 a2.25 2.25 0 1 0 -4.5 0zM474.75 1107 a2.25 2.25 0 1 0 4.5 0 a2.25 2.25 0 1 0 -4.5 0z" fill="black"></path><path d="M420.75 927 a2.25 2.25 0 1 0 4.5 0 a2.25 2.25 0 1 0 -4.5 0zM456.75 963 a2.25 2.25 0 1 0 4.5 0 a2.25 2.25 0 1 0 -4.5 0z" fill="black"></path><path d="M150.75 819 a2.25 2.25 0 1 0 4.5 0 a2.25 2.25 0 1 0 -4.5 0zM204.75 945 a2.25 2.25 0 1 0 4.5 0 a2.25 2.25 0 1 0 -4.5 0z" fill="black"></path><path d="M168.75 873 a2.25 2.25 0 1 0 4.5 0 a2.25 2.25 0 1 0 -4.5 0zM204.75 927 a2.25 2.25 0 1 0 4.5 0 a2.25 2.25 0 1 0 -4.5 0z" fill="black"></path><path d="M294.75 1107 a2.25 2.25 0 1 0 4.5 0 a2.25 2.25 0 1 0 -4.5 0zM258.75 1161 a2.25 2.25 0 1 0 4.5 0 a2.25 2.25 0 1 0 -4.5 0z" fill="black"></path><path d="M402.75 945 a2.25 2.25 0 1 0 4.5 0 a2.25 2.25 0 1 0 -4.5 0zM474.75 1017 a2.25 2.25 0 1 0 4.5 0 a2.25 2.25 0 1 0 -4.5 0z" fill="black"></path><path d="M402.75 693 a2.25 2.25 0 1 0 4.5 0 a2.25 2.25 0 1 0 -4.5 0zM438.75 711 a2.25 2.25 0 1 0 4.5 0 a2.25 2.25 0 1 0 -4.5 0z" fill="black"></path><path d="M42.75 225 a2.25 2.25 0 1 0 4.5 0 a2.25 2.25 0 1 0 -4.5 0zM42.75 171 a2.25 2.25 0 1 0 4.5 0 a2.25 2.25 0 1 0 -4.5 0z" fill="black"></path><path d="M276.75 315 a2.25 2.25 0 1 0 4.5 0 a2.25 2.25 0 1 0 -4.5 0zM312.75 279 a2.25 2.25 0 1 0 4.5 0 a2.25 2.25 0 1 0 -4.5 0z" fill="black"></path><path d="M204.75 1107 a2.25 2.25 0 1 0 4.5 0 a2.25 2.25 0 1 0 -4.5 0zM240.75 1143 a2.25 2.25 0 1 0 4.5 0 a2.25 2.25 0 1 0 -4.5 0z" fill="black"></path><path d="M258.75 117 a2.25 2.25 0 1 0 4.5 0 a2.25 2.25 0 1 0 -4.5 0zM258.75 81 a2.25 2.25 0 1 0 4.5 0 a2.25 2.25 0 1 0 -4.5 0z" fill="black"></path><path d="M114.75 1143 a2.25 2.25 0 1 0 4.5 0 a2.25 2.25 0 1 0 -4.5 0zM96.75 1179 a2.25 2.25 0 1 0 4.5 0 a2.25 2.25 0 1 0 -4.5 0z" fill="black"></path><path d="M294.75 297 a2.25 2.25 0 1 0 4.5 0 a2.25 2.25 0 1 0 -4.5 0zM330.75 351 a2.25 2.25 0 1 0 4.5 0 a2.25 2.25 0 1 0 -4.5 0z" fill="black"></path><path d="M240.75 135 a2.25 2.25 0 1 0 4.5 0 a2.25 2.25 0 1 0 -4.5 0zM240.75 81 a2.25 2.25 0 1 0 4.5 0 a2.25 2.25 0 1 0 -4.5 0z" fill="black"></path><path d="M312.75 531 a2.25 2.25 0 1 0 4.5 0 a2.25 2.25 0 1 0 -4.5 0zM276.75 531 a2.25 2.25 0 1 0 4.5 0 a2.25 2.25 0 1 0 -4.5 0z" fill="black"></path><path d="M510.75 1071 a2.25 2.25 0 1 0 4.5 0 a2.25 2.25 0 1 0 -4.5 0zM528.75 1125 a2.25 2.25 0 1 0 4.5 0 a2.25 2.25 0 1 0 -4.5 0z" fill="black"></path><path d="M222.75 837 a2.25 2.25 0 1 0 4.5 0 a2.25 2.25 0 1 0 -4.5 0zM204.75 891 a2.25 2.25 0 1 0 4.5 0 a2.25 2.25 0 1 0 -4.5 0z" fill="black"></path><path d="M6.75 873 a2.25 2.25 0 1 0 4.5 0 a2.25 2.25 0 1 0 -4.5 0zM24.75 909 a2.25 2.25 0 1 0 4.5 0 a2.25 2.25 0 1 0 -4.5 0z" fill="black"></path><path d="M366.75 765 a2.25 2.25 0 1 0 4.5 0 a2.25 2.25 0 1 0 -4.5 0zM366.75 801 a2.25 2.25 0 1 0 4.5 0 a2.25 2.25 0 1 0 -4.5 0z" fill="black"></path><path d="M528.75 747 a2.25 2.25 0 1 0 4.5 0 a2.25 2.25 0 1 0 -4.5 0zM528.75 819 a2.25 2.25 0 1 0 4.5 0 a2.25 2.25 0 1 0 -4.5 0z" fill="black"></path><path d="M132.75 729 a2.25 2.25 0 1 0 4.5 0 a2.25 2.25 0 1 0 -4.5 0zM114.75 765 a2.25 2.25 0 1 0 4.5 0 a2.25 2.25 0 1 0 -4.5 0z" fill="black"></path><path d="M546.75 567 a2.25 2.25 0 1 0 4.5 0 a2.25 2.25 0 1 0 -4.5 0zM546.75 603 a2.25 2.25 0 1 0 4.5 0 a2.25 2.25 0 1 0 -4.5 0z" fill="black"></path><path d="M492.75 891 a2.25 2.25 0 1 0 4.5 0 a2.25 2.25 0 1 0 -4.5 0zM528.75 927 a2.25 2.25 0 1 0 4.5 0 a2.25 2.25 0 1 0 -4.5 0z" fill="black"></path><path d="M384.75 657 a2.25 2.25 0 1 0 4.5 0 a2.25 2.25 0 1 0 -4.5 0zM420.75 657 a2.25 2.25 0 1 0 4.5 0 a2.25 2.25 0 1 0 -4.5 0z" fill="black"></path><path d="M546.75 135 a2.25 2.25 0 1 0 4.5 0 a2.25 2.25 0 1 0 -4.5 0zM474.75 135 a2.25 2.25 0 1 0 4.5 0 a2.25 2.25 0 1 0 -4.5 0z" fill="black"></path><path d="M24.75 243 a2.25 2.25 0 1 0 4.5 0 a2.25 2.25 0 1 0 -4.5 0zM24.75 207 a2.25 2.25 0 1 0 4.5 0 a2.25 2.25 0 1 0 -4.5 0z" fill="black"></path><path d="M258.75 891 a2.25 2.25 0 1 0 4.5 0 a2.25 2.25 0 1 0 -4.5 0zM258.75 837 a2.25 2.25 0 1 0 4.5 0 a2.25 2.25 0 1 0 -4.5 0z" fill="black"></path><path d="M114.75 1071 a2.25 2.25 0 1 0 4.5 0 a2.25 2.25 0 1 0 -4.5 0zM60.75 1143 a2.25 2.25 0 1 0 4.5 0 a2.25 2.25 0 1 0 -4.5 0z" fill="black"></path><path d="M366.75 567 a2.25 2.25 0 1 0 4.5 0 a2.25 2.25 0 1 0 -4.5 0zM366.75 603 a2.25 2.25 0 1 0 4.5 0 a2.25 2.25 0 1 0 -4.5 0z" fill="black"></path><path d="M312.75 1107 a2.25 2.25 0 1 0 4.5 0 a2.25 2.25 0 1 0 -4.5 0zM312.75 1161 a2.25 2.25 0 1 0 4.5 0 a2.25 2.25 0 1 0 -4.5 0z" fill="black"></path><path d="M132.75 495 a2.25 2.25 0 1 0 4.5 0 a2.25 2.25 0 1 0 -4.5 0zM150.75 531 a2.25 2.25 0 1 0 4.5 0 a2.25 2.25 0 1 0 -4.5 0z" fill="black"></path><path d="M114.75 369 a2.25 2.25 0 1 0 4.5 0 a2.25 2.25 0 1 0 -4.5 0zM114.75 405 a2.25 2.25 0 1 0 4.5 0 a2.25 2.25 0 1 0 -4.5 0z" fill="black"></path><path d="M78.75 297 a2.25 2.25 0 1 0 4.5 0 a2.25 2.25 0 1 0 -4.5 0zM60.75 261 a2.25 2.25 0 1 0 4.5 0 a2.25 2.25 0 1 0 -4.5 0z" fill="black"></path><path d="M492.75 927 a2.25 2.25 0 1 0 4.5 0 a2.25 2.25 0 1 0 -4.5 0zM492.75 963 a2.25 2.25 0 1 0 4.5 0 a2.25 2.25 0 1 0 -4.5 0z" fill="black"></path><path d="M78.75 333 a2.25 2.25 0 1 0 4.5 0 a2.25 2.25 0 1 0 -4.5 0zM42.75 297 a2.25 2.25 0 1 0 4.5 0 a2.25 2.25 0 1 0 -4.5 0z" fill="black"></path><path d="M294.75 1125 a2.25 2.25 0 1 0 4.5 0 a2.25 2.25 0 1 0 -4.5 0zM294.75 1161 a2.25 2.25 0 1 0 4.5 0 a2.25 2.25 0 1 0 -4.5 0z" fill="black"></path><path d="M42.75 477 a2.25 2.25 0 1 0 4.5 0 a2.25 2.25 0 1 0 -4.5 0zM42.75 441 a2.25 2.25 0 1 0 4.5 0 a2.25 2.25 0 1 0 -4.5 0z" fill="black"></path></mask></defs></svg>